<svg width="30" height="30" viewBox="0 0 30 30" fill="none" xmlns="http://www.w3.org/2000/svg">
<path d="M29.9976 13.9131C29.9785 13.6033 29.8732 13.3049 29.6936 13.0517C29.514 12.7985 29.2672 12.6005 28.9811 12.48L25.3984 10.9469L29.1644 8.7806C29.4314 8.62702 29.6507 8.40245 29.7977 8.13182C29.9448 7.86119 30.014 7.55509 29.9976 7.2475C29.9785 6.93765 29.8732 6.63931 29.6936 6.38609C29.514 6.13288 29.2672 5.93488 28.9811 5.81439L15.6499 0.131954C15.4443 0.044873 15.2233 0 15 0C14.7767 0 14.5557 0.044873 14.3501 0.131954L1.01886 5.81439C0.732756 5.93488 0.485993 6.13288 0.30639 6.38609C0.126786 6.63931 0.0214852 6.93765 0.00235671 7.2475C-0.0140174 7.55509 0.0551785 7.86119 0.202261 8.13182C0.349344 8.40245 0.568557 8.62702 0.835559 8.7806L4.60163 10.9469L1.01886 12.48C0.732756 12.6005 0.485993 12.7985 0.30639 13.0517C0.126786 13.3049 0.0214852 13.6033 0.00235671 13.9131C-0.0140174 14.2207 0.0551785 14.5268 0.202261 14.7974C0.349344 15.0681 0.568557 15.2926 0.835559 15.4462L4.60163 17.6125L1.01886 19.1456C0.732756 19.2661 0.485993 19.4641 0.30639 19.7173C0.126786 19.9705 0.0214852 20.2689 0.00235671 20.5787C-0.0140174 20.8863 0.0551785 21.1924 0.202261 21.4631C0.349344 21.7337 0.568557 21.9583 0.835559 22.1118L14.1668 29.7773C14.4201 29.9236 14.7075 30.0006 15 30.0006C15.2925 30.0006 15.5799 29.9236 15.8332 29.7773L29.1644 22.1118C29.4314 21.9583 29.6507 21.7337 29.7977 21.4631C29.9448 21.1924 30.014 20.8863 29.9976 20.5787C29.9785 20.2689 29.8732 19.9705 29.6936 19.7173C29.514 19.4641 29.2672 19.2661 28.9811 19.1456L25.3984 17.6125L29.1644 15.4462C29.4314 15.2926 29.6507 15.0681 29.7977 14.7974C29.9448 14.5268 30.014 14.2207 29.9976 13.9131ZM15 3.48143L24.5985 7.56412L15 13.0799L5.40151 7.56412L15 3.48143ZM14.1668 16.4461C14.4201 16.5923 14.7075 16.6693 15 16.6693C15.2925 16.6693 15.5799 16.5923 15.8332 16.4461L21.7823 13.1132L24.5985 14.3131L15 19.7455L5.40151 14.2297L8.21773 13.0299L14.1668 16.4461ZM24.5985 20.8954L15 26.4112L5.40151 20.8954L8.21773 19.6955L14.1668 23.1117C14.4201 23.2579 14.7075 23.3349 15 23.3349C15.2925 23.3349 15.5799 23.2579 15.8332 23.1117L21.7823 19.6955L24.5985 20.8954Z" fill="#111723"/>
</svg>
