<svg width="30" height="30" viewBox="0 0 54 54" fill="none" xmlns="http://www.w3.org/2000/svg">
<path d="M27.0002 24.75C28.7803 24.75 30.5203 24.2222 32.0004 23.2332C33.4804 22.2443 34.634 20.8387 35.3152 19.1942C35.9963 17.5496 36.1746 15.74 35.8273 13.9942C35.48 12.2484 34.6229 10.6447 33.3642 9.38605C32.1055 8.12738 30.5019 7.27021 28.7561 6.92294C27.0102 6.57568 25.2006 6.75391 23.5561 7.4351C21.9116 8.11628 20.506 9.26984 19.517 10.7499C18.5281 12.2299 18.0002 13.97 18.0002 15.75C18.0002 18.137 18.9485 20.4261 20.6363 22.114C22.3241 23.8018 24.6133 24.75 27.0002 24.75Z" fill="#CC3766"/>
<path d="M40.5002 47.25C41.097 47.25 41.6693 47.013 42.0912 46.591C42.5132 46.169 42.7502 45.5967 42.7502 45C42.7502 40.8228 41.0909 36.8168 38.1372 33.8631C35.1835 30.9094 31.1774 29.25 27.0002 29.25C22.8231 29.25 18.817 30.9094 15.8633 33.8631C12.9096 36.8168 11.2502 40.8228 11.2502 45C11.2502 45.5967 11.4873 46.169 11.9093 46.591C12.3312 47.013 12.9035 47.25 13.5002 47.25H40.5002Z" fill="#CC3766"/>
</svg>
