<svg width="27" height="30" viewBox="0 0 27 30" fill="none" xmlns="http://www.w3.org/2000/svg">
<path d="M25 0H5C3.67392 0 2.40215 0.526784 1.46447 1.46447C0.526784 2.40215 0 3.67392 0 5V25C0 26.3261 0.526784 27.5979 1.46447 28.5355C2.40215 29.4732 3.67392 30 5 30H25C25.442 30 25.866 29.8244 26.1785 29.5118C26.4911 29.1993 26.6667 28.7754 26.6667 28.3333V1.66667C26.6667 1.22464 26.4911 0.800716 26.1785 0.488155C25.866 0.175595 25.442 0 25 0ZM5 3.33333H23.3333V20H5C4.43143 20.0045 3.86779 20.106 3.33333 20.3V5C3.33333 4.55797 3.50893 4.13405 3.82149 3.82149C4.13405 3.50893 4.55797 3.33333 5 3.33333ZM5 26.6667C4.55797 26.6667 4.13405 26.4911 3.82149 26.1785C3.50893 25.866 3.33333 25.442 3.33333 25C3.33333 24.558 3.50893 24.134 3.82149 23.8215C4.13405 23.5089 4.55797 23.3333 5 23.3333H23.3333V26.6667H5Z" fill="#111723"/>
</svg>
