<svg width="30" height="30" viewBox="0 0 42 33" fill="none" xmlns="http://www.w3.org/2000/svg">
<path d="M34.9893 0.0385742H6.72005C5.11345 0.0385742 3.57265 0.676794 2.43661 1.81283C1.30057 2.94887 0.662354 4.48967 0.662354 6.09627V26.2886C0.662354 27.8952 1.30057 29.436 2.43661 30.572C3.57265 31.708 5.11345 32.3463 6.72005 32.3463H34.9893C36.5959 32.3463 38.1367 31.708 39.2727 30.572C40.4088 29.436 41.047 27.8952 41.047 26.2886V6.09627C41.047 4.48967 40.4088 2.94887 39.2727 1.81283C38.1367 0.676794 36.5959 0.0385742 34.9893 0.0385742V0.0385742ZM33.6364 4.07704L20.8547 13.6684L8.07293 4.07704H33.6364ZM34.9893 28.3078H6.72005C6.18451 28.3078 5.67091 28.0951 5.29224 27.7164C4.91356 27.3377 4.70082 26.8241 4.70082 26.2886V6.60107L19.6431 17.8078C19.9926 18.0699 20.4178 18.2117 20.8547 18.2117C21.2916 18.2117 21.7167 18.0699 22.0662 17.8078L37.0085 6.60107V26.2886C37.0085 26.8241 36.7958 27.3377 36.4171 27.7164C36.0384 28.0951 35.5248 28.3078 34.9893 28.3078Z" fill="#111723"/>
</svg>
