<svg width="27" height="30" viewBox="0 0 27 30" fill="none" xmlns="http://www.w3.org/2000/svg">
<path d="M22.5 3H21V1.5C21 1.10218 20.842 0.720644 20.5607 0.43934C20.2794 0.158035 19.8978 0 19.5 0C19.1022 0 18.7206 0.158035 18.4393 0.43934C18.158 0.720644 18 1.10218 18 1.5V3H9V1.5C9 1.10218 8.84196 0.720644 8.56066 0.43934C8.27936 0.158035 7.89783 0 7.5 0C7.10218 0 6.72065 0.158035 6.43934 0.43934C6.15804 0.720644 6 1.10218 6 1.5V3H4.5C3.30653 3 2.16193 3.47411 1.31802 4.31802C0.474106 5.16193 0 6.30653 0 7.5V25.5C0 26.6935 0.474106 27.8381 1.31802 28.682C2.16193 29.5259 3.30653 30 4.5 30H22.5C23.6935 30 24.8381 29.5259 25.682 28.682C26.5259 27.8381 27 26.6935 27 25.5V7.5C27 6.30653 26.5259 5.16193 25.682 4.31802C24.8381 3.47411 23.6935 3 22.5 3ZM4.5 6H6V7.5C6 7.89782 6.15804 8.27936 6.43934 8.56066C6.72065 8.84196 7.10218 9 7.5 9C7.89783 9 8.27936 8.84196 8.56066 8.56066C8.84196 8.27936 9 7.89782 9 7.5V6H18V7.5C18 7.89782 18.158 8.27936 18.4393 8.56066C18.7206 8.84196 19.1022 9 19.5 9C19.8978 9 20.2794 8.84196 20.5607 8.56066C20.842 8.27936 21 7.89782 21 7.5V6H22.5C22.8978 6 23.2794 6.15804 23.5607 6.43934C23.842 6.72064 24 7.10218 24 7.5V13.5H3V7.5C3 7.10218 3.15804 6.72064 3.43934 6.43934C3.72064 6.15804 4.10218 6 4.5 6ZM22.5 27H4.5C4.10218 27 3.72064 26.842 3.43934 26.5607C3.15804 26.2794 3 25.8978 3 25.5V16.5H24V25.5C24 25.8978 23.842 26.2794 23.5607 26.5607C23.2794 26.842 22.8978 27 22.5 27Z" fill="#111723"/>
<path d="M7.50006 22.5001C8.32849 22.5001 9.00006 21.8285 9.00006 21.0001C9.00006 20.1716 8.32849 19.5001 7.50006 19.5001C6.67163 19.5001 6.00006 20.1716 6.00006 21.0001C6.00006 21.8285 6.67163 22.5001 7.50006 22.5001Z" fill="#111723"/>
<path d="M19.5001 19.5001H13.5001C13.1023 19.5001 12.7208 19.6581 12.4395 19.9394C12.1582 20.2207 12.0001 20.6022 12.0001 21.0001C12.0001 21.3979 12.1582 21.7794 12.4395 22.0607C12.7208 22.342 13.1023 22.5001 13.5001 22.5001H19.5001C19.8979 22.5001 20.2795 22.342 20.5608 22.0607C20.8421 21.7794 21.0001 21.3979 21.0001 21.0001C21.0001 20.6022 20.8421 20.2207 20.5608 19.9394C20.2795 19.6581 19.8979 19.5001 19.5001 19.5001Z" fill="#111723"/>
</svg>
