<svg width="30" height="30" viewBox="0 0 30 30" fill="none" xmlns="http://www.w3.org/2000/svg">
<path d="M29.0333 12.2663L16.1834 0.443791C16.0285 0.303169 15.8441 0.191554 15.6411 0.115385C15.438 0.0392156 15.2201 0 15.0001 0C14.7801 0 14.5622 0.0392156 14.3591 0.115385C14.156 0.191554 13.9717 0.303169 13.8168 0.443791L0.966852 12.2813C0.655916 12.5634 0.410347 12.8984 0.244404 13.2667C0.0784609 13.635 -0.0045496 14.0293 0.000192273 14.4267V26.9994C-0.00109909 27.7674 0.324812 28.5066 0.91081 29.0649C1.49681 29.6231 2.29828 29.9578 3.15017 30H26.85C27.7019 29.9578 28.5034 29.6231 29.0894 29.0649C29.6754 28.5066 30.0013 27.7674 30 26.9994V14.4267C30.0013 13.621 29.6547 12.8463 29.0333 12.2663ZM11.6668 26.9994V17.9975H18.3334V26.9994H11.6668ZM26.6667 26.9994H21.6667V16.4972C21.6667 16.0993 21.4911 15.7176 21.1786 15.4363C20.866 15.1549 20.4421 14.9968 20.0001 14.9968H10.0001C9.5581 14.9968 9.13418 15.1549 8.82162 15.4363C8.50906 15.7176 8.33347 16.0993 8.33347 16.4972V26.9994H3.3335V14.3667L15.0001 3.63946L26.6667 14.4267V26.9994Z" fill="white"/>
</svg>
