<svg width="30" height="30" viewBox="0 0 54 54" fill="none" xmlns="http://www.w3.org/2000/svg">
<path d="M38.9388 18.3241H36.6483V13.995C36.6483 11.5651 35.683 9.23467 33.9648 7.51645C32.2465 5.79823 29.9161 4.83295 27.4862 4.83295C25.0563 4.83295 22.7259 5.79823 21.0077 7.51645C19.2894 9.23467 18.3242 11.5651 18.3242 13.995V18.3241H16.0336C14.2112 18.3241 12.4634 19.048 11.1747 20.3367C9.88607 21.6254 9.16211 23.3732 9.16211 25.1956V43.5197C9.16211 45.3422 9.88607 47.09 11.1747 48.3786C12.4634 49.6673 14.2112 50.3912 16.0336 50.3912H38.9388C40.7612 50.3912 42.509 49.6673 43.7977 48.3786C45.0864 47.09 45.8103 45.3422 45.8103 43.5197V25.1956C45.8103 23.3732 45.0864 21.6254 43.7977 20.3367C42.509 19.048 40.7612 18.3241 38.9388 18.3241ZM22.9052 13.995C22.8744 12.7473 23.3391 11.5383 24.1977 10.6325C25.0562 9.72673 26.2387 9.19799 27.4862 9.16202C28.7337 9.19799 29.9162 9.72673 30.7747 10.6325C31.6333 11.5383 32.098 12.7473 32.0672 13.995V18.3241H22.9052V13.995ZM41.2293 43.5197C41.2293 44.1272 40.988 44.7098 40.5584 45.1393C40.1289 45.5689 39.5463 45.8102 38.9388 45.8102H16.0336C15.4262 45.8102 14.8436 45.5689 14.414 45.1393C13.9845 44.7098 13.7431 44.1272 13.7431 43.5197V25.1956C13.7431 24.5881 13.9845 24.0055 14.414 23.576C14.8436 23.1464 15.4262 22.9051 16.0336 22.9051H38.9388C39.5463 22.9051 40.1289 23.1464 40.5584 23.576C40.988 24.0055 41.2293 24.5881 41.2293 25.1956V43.5197Z" fill="#231F20"/>
<path d="M27.486 27.4862C26.127 27.4862 24.7984 27.8892 23.6684 28.6442C22.5384 29.3993 21.6577 30.4725 21.1376 31.7281C20.6175 32.9837 20.4814 34.3653 20.7465 35.6983C21.0117 37.0312 21.6661 38.2556 22.6271 39.2166C23.5881 40.1776 24.8125 40.8321 26.1455 41.0972C27.4784 41.3623 28.8601 41.2263 30.1157 40.7062C31.3713 40.1861 32.4445 39.3053 33.1995 38.1753C33.9546 37.0453 34.3576 35.7168 34.3576 34.3577C34.3576 32.5352 33.6336 30.7874 32.345 29.4988C31.0563 28.2101 29.3085 27.4862 27.486 27.4862ZM27.486 36.6482C27.033 36.6482 26.5902 36.5139 26.2135 36.2622C25.8368 36.0105 25.5432 35.6528 25.3699 35.2342C25.1965 34.8157 25.1512 34.3551 25.2395 33.9108C25.3279 33.4665 25.5461 33.0584 25.8664 32.7381C26.1867 32.4177 26.5949 32.1996 27.0392 32.1112C27.4835 32.0228 27.944 32.0682 28.3626 32.2415C28.7811 32.4149 29.1389 32.7085 29.3905 33.0851C29.6422 33.4618 29.7766 33.9047 29.7766 34.3577C29.7766 34.9652 29.5352 35.5478 29.1057 35.9773C28.6761 36.4069 28.0935 36.6482 27.486 36.6482Z" fill="#231F20"/>
</svg>
