<svg width="40" height="40" viewBox="0 0 32 39" fill="none" xmlns="http://www.w3.org/2000/svg">
<path d="M21.4627 26.914H9.92827C9.41841 26.914 8.92944 27.1166 8.56892 27.4771C8.2084 27.8376 8.00586 28.3266 8.00586 28.8364C8.00586 29.3463 8.2084 29.8353 8.56892 30.1958C8.92944 30.5563 9.41841 30.7588 9.92827 30.7588H21.4627C21.9726 30.7588 22.4615 30.5563 22.8221 30.1958C23.1826 29.8353 23.3851 29.3463 23.3851 28.8364C23.3851 28.3266 23.1826 27.8376 22.8221 27.4771C22.4615 27.1166 21.9726 26.914 21.4627 26.914Z" fill="#111723"/>
<path d="M9.92827 23.0693H15.6955C16.2053 23.0693 16.6943 22.8667 17.0548 22.5062C17.4154 22.1457 17.6179 21.6567 17.6179 21.1469C17.6179 20.637 17.4154 20.148 17.0548 19.7875C16.6943 19.427 16.2053 19.2245 15.6955 19.2245H9.92827C9.41841 19.2245 8.92944 19.427 8.56892 19.7875C8.2084 20.148 8.00586 20.637 8.00586 21.1469C8.00586 21.6567 8.2084 22.1457 8.56892 22.5062C8.92944 22.8667 9.41841 23.0693 9.92827 23.0693Z" fill="#111723"/>
<path d="M30.5748 12.1692L20.1169 0.63474C19.9372 0.435593 19.7178 0.276268 19.4728 0.16701C19.2278 0.0577518 18.9626 0.000980053 18.6944 0.000345987H5.23752C4.5988 -0.00727269 3.96484 0.111 3.37183 0.34841C2.77882 0.58582 2.23838 0.937717 1.78139 1.38401C1.32439 1.83029 0.959773 2.36223 0.708368 2.94945C0.456963 3.53666 0.323691 4.16764 0.316162 4.80636V33.6425C0.323691 34.2812 0.456963 34.9122 0.708368 35.4994C0.959773 36.0866 1.32439 36.6185 1.78139 37.0648C2.23838 37.5111 2.77882 37.863 3.37183 38.1004C3.96484 38.3378 4.5988 38.4561 5.23752 38.4485H26.1533C26.792 38.4561 27.426 38.3378 28.019 38.1004C28.612 37.863 29.1524 37.5111 29.6094 37.0648C30.0664 36.6185 30.4311 36.0866 30.6825 35.4994C30.9339 34.9122 31.0671 34.2812 31.0747 33.6425V13.4572C31.0734 12.9808 30.8953 12.5217 30.5748 12.1692ZM19.5402 5.76757L24.8076 11.5348H20.9628C20.7615 11.5226 20.5646 11.4705 20.3837 11.3814C20.2027 11.2924 20.0413 11.1682 19.9089 11.0161C19.7765 10.8639 19.6757 10.687 19.6124 10.4955C19.5491 10.304 19.5245 10.1018 19.5402 9.90074V5.76757ZM26.1533 34.6037H5.23752C5.10367 34.6115 4.9696 34.5928 4.843 34.5486C4.71639 34.5045 4.59974 34.4358 4.49973 34.3465C4.39971 34.2572 4.31831 34.1491 4.26018 34.0283C4.20205 33.9074 4.16834 33.7763 4.16097 33.6425V4.80636C4.16834 4.67249 4.20205 4.54139 4.26018 4.42057C4.31831 4.29975 4.39971 4.19159 4.49973 4.1023C4.59974 4.013 4.71639 3.94432 4.843 3.9002C4.9696 3.85607 5.10367 3.83737 5.23752 3.84516H15.6954V9.90074C15.6644 11.3168 16.1948 12.6877 17.1708 13.7142C18.1468 14.7406 19.4893 15.3393 20.9051 15.3796H27.2299V33.6425C27.2225 33.7763 27.1888 33.9074 27.1306 34.0283C27.0725 34.1491 26.9911 34.2572 26.8911 34.3465C26.7911 34.4358 26.6744 34.5045 26.5478 34.5486C26.4212 34.5928 26.2872 34.6115 26.1533 34.6037Z" fill="#111723"/>
</svg>
