<svg width="40" height="40" viewBox="0 0 39 39" fill="none" xmlns="http://www.w3.org/2000/svg">
<path d="M32.0407 0.0680847H6.40814C4.70859 0.0680847 3.07866 0.743226 1.8769 1.94499C0.675141 3.14674 0 4.77668 0 6.47622V32.1088C0 33.8083 0.675141 35.4383 1.8769 36.64C3.07866 37.8418 4.70859 38.5169 6.40814 38.5169H32.0407C33.7402 38.5169 35.3702 37.8418 36.5719 36.64C37.7737 35.4383 38.4488 33.8083 38.4488 32.1088V6.47622C38.4488 4.77668 37.7737 3.14674 36.5719 1.94499C35.3702 0.743226 33.7402 0.0680847 32.0407 0.0680847ZM6.40814 4.34018H32.0407C32.6072 4.34018 33.1505 4.56522 33.5511 4.96581C33.9517 5.3664 34.1767 5.90971 34.1767 6.47622V24.3336L27.3414 18.5022C26.2823 17.6307 24.9534 17.1543 23.5819 17.1543C22.2105 17.1543 20.8816 17.6307 19.8225 18.5022L4.27209 31.468V6.47622C4.27209 5.90971 4.49714 5.3664 4.89773 4.96581C5.29831 4.56522 5.84162 4.34018 6.40814 4.34018ZM32.0407 34.2448H7.60432L22.5566 21.7703C22.8439 21.557 23.1921 21.4419 23.5499 21.4419C23.9077 21.4419 24.2559 21.557 24.5432 21.7703L34.1767 29.9727V32.1088C34.1767 32.6753 33.9517 33.2186 33.5511 33.6192C33.1505 34.0198 32.6072 34.2448 32.0407 34.2448Z" fill="#111723"/>
<path d="M10.6801 15.0204C12.4497 15.0204 13.8842 13.5859 13.8842 11.8163C13.8842 10.0468 12.4497 8.61227 10.6801 8.61227C8.91058 8.61227 7.47607 10.0468 7.47607 11.8163C7.47607 13.5859 8.91058 15.0204 10.6801 15.0204Z" fill="#111723"/>
</svg>
