<svg width="31" height="30" viewBox="0 0 31 30" fill="none" xmlns="http://www.w3.org/2000/svg">
<path d="M19.4295 29.9977H19.3296C18.9633 29.9757 18.6146 29.8331 18.3377 29.5924C18.0609 29.3516 17.8713 29.0261 17.7986 28.6664L15.2358 16.0687C15.1705 15.7489 15.0127 15.4553 14.7819 15.2245C14.5511 14.9937 14.2575 14.8359 13.9377 14.7706L1.33998 12.2078C0.979643 12.1362 0.653111 11.9475 0.411304 11.6709C0.169497 11.3943 0.0260069 11.0455 0.00320867 10.6788C-0.0195895 10.3121 0.0795855 9.94822 0.285269 9.64381C0.490953 9.33941 0.791584 9.11162 1.14028 8.99597L27.7669 0.125969C28.0658 0.00255929 28.3942 -0.0311047 28.7119 0.0290923C29.0296 0.0892892 29.3229 0.240739 29.5559 0.46493C29.7889 0.689121 29.9515 0.976341 30.024 1.29148C30.0964 1.60663 30.0754 1.93604 29.9636 2.23946L21.0936 28.8661C20.9778 29.2106 20.7525 29.5076 20.452 29.712C20.1515 29.9163 19.7924 30.0167 19.4295 29.9977Z" fill="white"/>
</svg>
