<svg width="223" height="95" viewBox="0 0 223 95" fill="none" xmlns="http://www.w3.org/2000/svg">
<g clip-path="url(#clip0_52_466)">
<rect width="223" height="95" rx="20" fill="#E4F4F9"/>
<path d="M33.2057 65.0018L22.2219 100.873L19 109.219C19 109.219 23.6864 115.222 34.8166 117.564C42.4321 119.175 47.5578 119.321 50.9262 119.029C53.7087 118.736 57.0771 118.15 55.3197 113.026C52.83 105.412 53.7087 100.58 53.7087 100.58L57.6629 79.0576L33.2057 65.0018Z" fill="#EA9D7D"/>
<path d="M31.5947 84.3285C35.1668 89.3648 39.8853 93.4799 45.3611 96.3344C50.4868 98.8234 54.1481 99.4091 54.1481 99.4091L57.5164 81.5466L33.4986 65.0018L32.1805 67.4909L31.1554 71.5905C30.716 71.5905 28.2264 79.204 31.5947 84.3285Z" fill="url(#paint0_linear_52_466)"/>
<path d="M19.8787 109.365H19.7322C19.4393 109.219 19.2929 108.926 19.2929 108.633L26.1761 87.5496C27.4941 83.1571 31.4483 68.3693 31.4483 68.3693C31.5947 68.0765 31.8876 67.9301 32.1805 67.9301C32.4734 68.0765 32.6199 68.3693 32.6199 68.6622L27.3477 87.8424C26.1761 91.7956 20.4645 108.78 20.4645 108.78C20.4645 109.219 20.1716 109.365 19.8787 109.365Z" fill="#CF7653"/>
<path d="M37.3063 73.4937L37.5992 74.2258L38.185 73.4937H37.3063Z" fill="#A84D3B"/>
<path d="M37.3063 72.4688L37.0134 73.7865L38.4779 73.6401L37.3063 72.4688ZM45.2146 78.1789V79.7895L46.8255 79.0574L45.2146 78.1789ZM41.2604 75.6899L40.9675 77.154L42.7249 76.7148L41.2604 75.6899ZM39.0637 74.0793L38.7708 75.5435L40.5282 75.1042L39.0637 74.0793Z" fill="#A84D3B"/>
<path d="M36.4276 71.1511L35.6953 72.6152H37.4527L36.4276 71.1511ZM47.2649 81.5464L46.6791 80.668L46.0933 81.8393L47.2649 81.5464ZM45.361 79.9359L44.4823 78.911L44.043 80.0823L45.361 79.9359ZM51.3655 83.157L50.3403 81.9857L49.901 83.3034L51.3655 83.157ZM55.6125 84.6211L54.7339 83.5962L54.2945 84.7675L55.6125 84.6211ZM47.9971 79.4967L46.972 79.0574V80.2287L47.9971 79.4967ZM50.0474 84.0355L49.3152 83.157L48.7294 84.3283L50.0474 84.0355ZM44.3359 78.0325L43.3107 77.5933V78.7646L44.3359 78.0325Z" fill="#A84D3B"/>
<path d="M51.9513 81.1073L50.6333 80.5217V82.425L51.9513 81.1073ZM54.8803 81.693L53.7087 81.4002L54.0016 82.8643L54.8803 81.693ZM56.6377 84.0356L55.6126 83.8892L56.0519 85.0605L56.6377 84.0356ZM52.6835 83.5964L52.0978 82.7179L51.3655 83.7428L52.6835 83.5964ZM56.1984 86.9639L56.3448 85.939L55.1732 86.3782L56.1984 86.9639ZM55.759 89.0137L56.0519 87.9888L54.8803 88.2816L55.759 89.0137ZM53.2694 89.0137L52.6835 89.4529L53.5623 89.8922L53.2694 89.0137ZM53.8552 83.3035L53.2694 83.7428L54.0016 84.182L53.8552 83.3035ZM57.0771 82.2786L56.3448 82.1322L56.4913 83.0107L57.0771 82.2786ZM54.441 90.6242L53.8552 91.2099L54.5874 91.5027L54.441 90.6242ZM39.7959 75.3972L39.2101 75.8364L40.0888 76.2757L39.7959 75.3972ZM34.9631 68.6621L34.3773 69.2478L35.1095 69.5406L34.9631 68.6621ZM49.7545 82.5715L49.3152 82.1322L49.0223 82.8643L49.7545 82.5715ZM45.5075 81.4002L45.8004 80.6681L45.0681 80.8145L45.5075 81.4002ZM47.7042 82.7179L47.8507 82.1322H47.1185L47.7042 82.7179ZM50.7797 85.4997L51.0726 86.2318L51.6584 85.6462L50.7797 85.4997ZM55.0268 82.7179L54.441 83.0107L55.1732 83.45L55.0268 82.7179Z" fill="#A84D3B"/>
<path d="M55.3197 81.8393L54.441 82.425L55.4661 83.0106L55.3197 81.8393ZM53.4158 82.5714L52.83 82.8642L53.5623 83.3035L53.4158 82.5714ZM54.0016 92.9668L53.4158 93.2596L54.1481 93.6989L54.0016 92.9668ZM52.5371 91.2098L52.6836 91.7955L53.2694 91.3562L52.5371 91.2098ZM52.3907 87.6959L52.5371 88.2815L53.1229 87.8423L52.3907 87.6959ZM55.1732 89.16L54.7339 88.7208L54.441 89.4529L55.1732 89.16ZM34.8166 82.2786L35.1095 82.5714L35.4024 81.9858L34.8166 82.2786ZM37.4527 80.3752L37.1598 80.668L37.7456 80.8144L37.4527 80.3752ZM40.5282 85.6461L40.0888 85.4997V85.9389L40.5282 85.6461ZM39.0637 83.1571L38.7708 83.5963H39.3566L39.0637 83.1571ZM49.0223 87.8423V88.5744L49.901 88.2815L49.0223 87.8423ZM47.7043 81.1073V81.8393L48.583 81.5465L47.7043 81.1073ZM47.8507 79.6431V80.5216L48.583 80.0824L47.8507 79.6431ZM36.4276 75.2507V75.9828L37.3063 75.69L36.4276 75.2507ZM54.0016 85.9389L53.4158 86.0853L53.8552 86.671L54.0016 85.9389ZM51.8049 91.9419L51.512 91.3562L51.0726 91.9419H51.8049ZM52.3907 84.3284L52.6836 85.0604L53.2694 84.3284H52.3907ZM54.5874 85.2069L55.0268 85.9389L55.6126 85.2069H54.5874ZM56.1984 82.5714L55.759 83.0106L56.4913 83.3035L56.1984 82.5714ZM55.3197 87.1102L54.7339 86.8174V87.5495L55.3197 87.1102ZM38.7708 74.2258L37.8921 74.8115L38.9172 75.3971L38.7708 74.2258ZM35.8418 75.2507L35.4024 74.9579L35.256 75.5435L35.8418 75.2507ZM32.9128 73.7866L32.4734 73.4937L32.327 74.0794L32.9128 73.7866ZM32.0341 78.3254L32.1805 77.8862H31.5947L32.0341 78.3254Z" fill="#A84D3B"/>
<path d="M37.7456 75.1042L38.0385 75.6899L38.4779 75.1042H37.7456ZM35.9882 73.6401L36.2811 74.665L37.1598 73.7865L35.9882 73.6401ZM35.5489 69.6869L35.1095 70.5654L36.2811 70.7118L35.5489 69.6869ZM40.0888 76.8612L39.6495 77.154L40.2353 77.4469L40.0888 76.8612ZM41.114 76.2756L40.6746 76.5684L41.2604 76.8612L41.114 76.2756ZM42.2856 76.8612L41.8462 77.154L42.432 77.4469L42.2856 76.8612ZM40.2353 80.668L39.7959 80.3751L39.6495 80.9608L40.2353 80.668ZM31.4482 75.6899L31.7412 76.2756L32.1805 75.6899H31.4482ZM34.6702 72.3224L34.3772 72.7616L34.8166 72.908L34.6702 72.3224ZM34.5237 77.8861L34.0844 77.5933V78.1789L34.5237 77.8861ZM35.1095 71.7367L35.4024 72.3224L35.8418 71.7367H35.1095ZM36.4276 72.6152L36.7205 73.2009L37.1598 72.6152H36.4276ZM33.0592 71.0047L32.7663 71.4439L33.2057 71.7367L33.0592 71.0047ZM33.645 69.5405L33.2057 69.2477L33.0592 69.9798L33.645 69.5405ZM41.4069 77.5933V78.3253L41.9927 78.0325L41.4069 77.5933ZM44.043 78.911L43.6036 79.0574L43.8965 79.4967L44.043 78.911ZM42.8714 77.7397L42.432 77.8861L42.7249 78.3253L42.8714 77.7397ZM52.6835 82.1321L52.2442 82.2785L52.5371 82.7178L52.6835 82.1321ZM50.6332 81.1072L50.0474 81.2536L50.4868 81.6929L50.6332 81.1072ZM43.7501 82.2785L43.4572 81.6929L43.0178 82.2785H43.7501ZM51.9513 89.4528L51.6584 89.0136L51.219 89.4528H51.9513ZM42.8714 80.668L42.5785 80.2287L42.2856 80.668H42.8714ZM46.6791 79.9359V80.5216L47.4113 80.2287L46.6791 79.9359ZM49.1687 80.3751V81.1072L49.7545 80.8144L49.1687 80.3751ZM51.6584 81.6929L51.219 81.8393L51.5119 82.4249L51.6584 81.6929ZM49.7545 84.7676L49.4616 84.3283L49.1687 84.7676H49.7545ZM43.3107 84.6211V85.2068L44.043 84.914L43.3107 84.6211ZM46.2397 83.0106L45.6539 83.157L46.0933 83.5962L46.2397 83.0106ZM51.219 84.1819L50.9261 83.7427L50.6332 84.1819H51.219Z" fill="#A84D3B"/>
<path d="M68.7931 29.8625C68.7931 29.8625 73.0402 36.7439 73.7724 39.965C74.3591 42.3113 74.6542 44.7209 74.6511 47.1393C74.6511 53.2887 74.2118 61.9271 73.4795 66.7588C72.015 75.1044 68.0608 80.0824 63.3744 81.5466C58.688 83.0107 50.1939 79.936 44.4823 77.0077C39.6495 74.5187 36.8669 71.8833 36.1347 68.8086C35.4024 65.5875 33.9379 61.4879 33.9379 61.4879L34.2308 51.971L45.5075 27.9591L68.7931 29.8625Z" fill="#EA9D7D"/>
<path d="M39.796 56.3635C39.796 56.3635 48.2901 46.8465 53.7087 44.7968C64.1067 40.5507 74.2118 40.99 74.2118 40.99L72.6008 35.8655L43.0179 31.9123L36.574 50.3605L39.796 56.3635Z" fill="url(#paint1_linear_52_466)"/>
<path d="M30.8625 68.2229C35.1493 68.2229 38.6244 64.4864 38.6244 59.8773C38.6244 55.2681 35.1493 51.5317 30.8625 51.5317C26.5758 51.5317 23.1006 55.2681 23.1006 59.8773C23.1006 64.4864 26.5758 68.2229 30.8625 68.2229Z" fill="#EA9D7D"/>
<path d="M30.8625 68.8086C26.1761 68.8086 22.3683 64.709 22.3683 59.8774C22.3683 54.8993 26.1761 50.9461 30.8625 50.9461C35.5489 50.9461 39.3566 55.0457 39.3566 59.8774C39.3566 64.709 35.5489 68.8086 30.8625 68.8086ZM30.8625 52.1175C26.9083 52.1175 23.6864 55.6314 23.6864 59.8774C23.6864 64.1234 26.9083 67.6373 30.8625 67.6373C34.8166 67.6373 38.0385 64.1234 38.0385 59.8774C38.0385 55.485 34.8166 52.1175 30.8625 52.1175Z" fill="#B76349"/>
<path d="M31.1554 63.5378C33.0965 63.5378 34.6702 61.899 34.6702 59.8774C34.6702 57.8559 33.0965 56.2171 31.1554 56.2171C29.2142 56.2171 27.6406 57.8559 27.6406 59.8774C27.6406 61.899 29.2142 63.5378 31.1554 63.5378Z" fill="url(#paint2_linear_52_466)"/>
<path d="M39.3566 54.6064L36.867 56.8026L35.8418 65.0018L36.2812 67.3444C36.2812 67.3444 39.796 65.441 40.0889 61.6343C40.3818 57.8275 39.3566 54.6064 39.3566 54.6064Z" fill="#EA9D7D"/>
<path d="M58.5416 82.1323C56.9306 82.1323 55.6126 81.8394 52.6836 81.1074C47.2748 79.5184 42.2773 76.7704 38.0385 73.0546C34.8166 69.8335 35.1095 66.7588 35.1095 66.6124C35.1095 66.3196 35.1096 65.8803 35.4025 65.8803C35.6954 65.8803 35.8418 66.1732 35.9882 66.466C36.1347 67.0516 36.1347 69.5407 38.7708 72.1761C42.8469 75.7401 47.6416 78.3865 52.83 79.9361C57.37 80.961 58.2487 81.2538 61.617 80.961C64.839 80.6681 66.7428 79.3504 66.7428 79.3504C67.1822 79.0576 67.6215 78.9112 67.3286 79.3504C67.0357 79.6432 64.6925 81.5466 61.7635 81.9859C60.4455 82.1323 59.5667 82.1323 58.5416 82.1323Z" fill="#B76349"/>
<path d="M59.1274 60.0237L60.1525 59.1452L58.8345 58.706L59.1274 60.0237ZM46.2397 59.4381L45.9469 58.706L45.2146 59.4381H46.2397ZM63.228 60.9022L64.6925 61.7807L64.8389 60.0237L63.228 60.9022ZM59.4203 53.4351L61.3241 54.6064L61.617 52.2638L59.4203 53.4351Z" fill="#F4B9A6"/>
<path d="M59.4203 52.2638L61.3241 51.0924L59.4203 49.6283V52.2638ZM63.8138 65.2946L65.7176 64.1233L63.8138 62.8055V65.2946ZM65.7176 62.952L66.4499 60.9022H63.9602L65.7176 62.952ZM58.688 58.706L57.5164 58.9988L58.2487 60.0237L58.688 58.706ZM59.5667 57.0954L58.2487 57.3882L59.1274 58.4131L59.5667 57.0954ZM59.2738 63.3912L59.7132 64.5625L60.7383 63.5376L59.2738 63.3912ZM59.8596 65.5874L60.8848 66.1731L61.1777 65.0018L59.8596 65.5874ZM65.8641 69.1014L64.6925 69.5406L65.5712 70.5655L65.8641 69.1014ZM61.0312 44.0646L60.5919 45.0895L61.9099 44.9431L61.0312 44.0646ZM62.2028 51.3853L61.1777 51.2389L61.617 52.2638L62.2028 51.3853ZM63.228 47.7249L62.2028 47.5785L62.4957 48.6034L63.228 47.7249ZM54.7339 49.7747L54.5874 51.0924L55.9055 50.5068L54.7339 49.7747ZM57.5164 47.7249L56.4913 48.457L57.6629 49.1891L57.5164 47.7249ZM52.6835 49.4819H51.9513L52.3906 50.214L52.6835 49.4819ZM63.8138 69.2478L62.7886 69.5406L63.5209 70.2727L63.8138 69.2478ZM62.6422 68.5157L61.617 68.8085L62.3493 69.687L62.6422 68.5157ZM53.8552 62.0735L52.83 62.2199L53.4158 63.2448L53.8552 62.0735ZM56.3448 63.9769L55.3197 64.2697L55.9055 65.1482L56.3448 63.9769ZM52.9765 58.8524L52.83 59.7309L54.0016 59.438L52.9765 58.8524ZM58.2487 57.6811L57.8093 56.8026L57.0771 57.6811H58.2487ZM68.9395 66.1731L69.5253 65.5874L68.5002 65.441L68.9395 66.1731ZM64.8389 63.2448L65.4247 63.3912V62.6591L64.8389 63.2448ZM71.4292 56.5098V57.0954L72.015 56.8026L71.4292 56.5098ZM68.3537 59.7309L69.086 59.8773L68.7931 59.1452L68.3537 59.7309Z" fill="#F4B9A6"/>
<path d="M71.7221 57.5347L71.8685 56.949L71.1363 57.0954L71.7221 57.5347ZM50.3404 51.9709L49.901 52.703H50.7797L50.3404 51.9709ZM59.8596 47.2857L61.1777 46.9929L60.1525 45.968L59.8596 47.2857ZM61.1777 62.3663L63.8138 61.6343L61.617 59.438L61.1777 62.3663ZM59.1274 52.4102L58.1022 52.2638L58.2487 53.2887L59.1274 52.4102ZM51.512 59.438V58.5596L50.3404 58.9988L51.512 59.438ZM57.37 49.4819L57.5164 50.7996L58.688 49.9211L57.37 49.4819ZM55.759 51.6781L55.9055 52.8494L57.0771 52.2638L55.759 51.6781ZM57.0771 50.7996L57.2235 52.1173L58.3951 51.3853L57.0771 50.7996ZM68.0608 49.4819L69.086 49.9211V48.7498L68.0608 49.4819ZM59.2738 55.7777L58.688 55.0456L57.9558 56.0705L59.2738 55.7777ZM64.2531 67.93L63.228 68.2229L63.9602 69.1014L64.2531 67.93ZM59.7132 61.6343L59.4203 62.3663H60.4454L59.7132 61.6343ZM60.7383 66.7587L60.299 66.0267L59.8596 66.9051L60.7383 66.7587ZM62.2028 67.4908L62.7886 66.9051L61.9099 66.6123L62.2028 67.4908ZM62.6422 65.5874L63.3744 65.0018L62.3493 64.5625L62.6422 65.5874Z" fill="#F4B9A6"/>
<path d="M62.4958 64.5625L63.3745 63.8304L62.2028 63.3912L62.4958 64.5625ZM61.9099 60.0237L62.6422 59.438L61.6171 58.9988L61.9099 60.0237ZM59.8597 60.4629L60.5919 60.9022L60.8848 60.1701L59.8597 60.4629ZM68.6467 67.3444L67.768 67.4908L68.3538 68.2229L68.6467 67.3444ZM63.9603 59.1452L63.6673 59.8773L64.6925 59.7309L63.9603 59.1452ZM66.3035 68.0765L65.7177 67.3444L65.2783 68.2229L66.3035 68.0765ZM61.1777 71.0047L61.3242 72.0296L62.2028 71.2976L61.1777 71.0047ZM58.5416 66.3195L57.8093 66.6123L58.5416 67.198V66.3195ZM49.4617 56.5097L48.8759 55.7777L48.4365 56.8026L49.4617 56.5097ZM59.2738 68.3693L59.8597 68.6621L60.0061 67.7836L59.2738 68.3693ZM56.6377 66.9051L57.2235 67.198L57.37 66.1731L56.6377 66.9051ZM51.9513 67.93L51.6584 68.8085L52.6836 68.6621L51.9513 67.93ZM55.1732 71.1511H54.2945L54.5874 72.0296L55.1732 71.1511ZM52.0978 72.3224L51.3655 72.176L51.512 73.0545L52.0978 72.3224ZM60.4454 58.5595L62.2028 58.1203L60.7383 56.6562L60.4454 58.5595ZM59.1274 54.46L59.5668 55.192L60.1525 54.46H59.1274ZM59.2738 56.0705L60.1525 57.3882L61.3242 55.7777L59.2738 56.0705ZM64.2532 53.1422L63.0816 54.1671L64.839 54.7528L64.2532 53.1422ZM53.4158 56.0705V55.192L52.5371 55.6313L53.4158 56.0705ZM62.6422 55.3384L62.0564 55.9241L62.9351 56.2169L62.6422 55.3384ZM59.2738 50.2139L60.299 50.0675L59.5668 49.1891L59.2738 50.2139ZM65.8641 52.5566L66.8893 52.2637L66.0106 51.3853L65.8641 52.5566ZM58.688 52.5566L59.8597 52.2637L58.9809 51.5317L58.688 52.5566ZM66.0106 47.7249L67.0357 47.4321L66.3035 46.5536L66.0106 47.7249ZM62.4958 45.3823L61.7635 45.9679L62.7887 46.2608L62.4958 45.3823ZM54.441 48.457V47.5785L53.5623 48.0177L54.441 48.457ZM55.6126 61.3414L55.4661 62.5127L56.7842 62.0735L55.6126 61.3414ZM54.0016 60.9022L52.9765 61.0486L53.5623 61.9271L54.0016 60.9022ZM56.1984 65.2946L56.0519 66.4659L57.2235 66.0267L56.1984 65.2946ZM57.6629 61.0486V62.2199L58.9809 61.4878L57.6629 61.0486ZM56.6377 63.2448L56.7842 64.4161L57.9558 63.684L56.6377 63.2448ZM55.3197 60.0237V59.1452L54.441 59.5844L55.3197 60.0237Z" fill="#F4B9A6"/>
<path d="M68.3538 52.9958L69.3789 52.7029L68.5002 51.8245L68.3538 52.9958ZM64.546 49.6282L64.9854 50.2139L65.5712 49.4818L64.546 49.6282ZM72.1614 61.3414L73.0402 60.9021L72.3079 60.3165L72.1614 61.3414ZM56.3448 48.3105V47.432L55.4661 47.8713L56.3448 48.3105ZM62.4957 50.0675V51.0924L63.6673 50.7996L62.4957 50.0675ZM61.3241 48.1641L61.1777 49.189L62.3493 48.7498L61.3241 48.1641ZM62.0564 57.9738L63.8138 59.1451L64.3996 56.9489L62.0564 57.9738ZM66.3034 57.9738L68.2073 57.3882L66.8893 55.6312L66.3034 57.9738ZM61.617 58.9987L62.2028 59.1451L62.0564 58.4131L61.617 58.9987ZM60.7383 54.8992L60.4454 55.6312H61.4706L60.7383 54.8992ZM62.4957 52.7029L61.4706 52.8494L62.0564 53.7278L62.4957 52.7029ZM65.7176 53.1422L64.6925 53.2886L65.2783 54.1671L65.7176 53.1422Z" fill="#F4B9A6"/>
<path d="M61.7635 54.6064L63.9602 53.435L61.617 51.9709L61.7635 54.6064ZM64.9854 46.2608L65.5712 45.0894H64.1067L64.9854 46.2608ZM63.3744 62.952L63.8138 61.927H62.4957L63.3744 62.952ZM61.4706 57.3882L63.3744 56.3633L61.3241 55.0456L61.4706 57.3882ZM62.6422 48.7498L63.3744 49.3355L63.6673 48.457L62.6422 48.7498ZM64.9854 50.3603L63.9602 51.9709L66.157 52.1173L64.9854 50.3603ZM66.4499 48.3106L66.0105 48.8962L67.0357 49.0426L66.4499 48.3106ZM67.475 54.6064L68.0608 55.192L68.3537 54.3135L67.475 54.6064ZM64.6925 47.4321L64.2531 48.0177L65.2783 48.1641L64.6925 47.4321ZM51.6584 56.0705L50.6332 56.3633L51.512 57.2418L51.6584 56.0705ZM53.1229 51.6781L52.6835 52.5566H53.8551L53.1229 51.6781ZM55.3196 51.6781L55.1732 50.7996L54.441 51.5317L55.3196 51.6781ZM54.148 56.3633L54.0016 55.4848L53.1229 56.2169L54.148 56.3633Z" fill="#F4B9A6"/>
<path d="M58.2487 38.501L58.1023 39.2331H58.688L58.2487 38.501ZM58.5416 40.4044L58.1023 39.8187L57.9558 40.5508L58.5416 40.4044ZM64.2532 39.3795L63.8138 38.9403L63.5209 39.5259L64.2532 39.3795ZM69.2325 38.0618L69.6718 38.501L69.9647 37.7689L69.2325 38.0618ZM71.8686 37.3297L72.3079 37.7689L72.4544 37.0369L71.8686 37.3297ZM70.9899 38.2082L71.5757 38.0618L71.1363 37.4761L70.9899 38.2082ZM60.0061 39.3795L59.5668 38.9403L59.2738 39.5259L60.0061 39.3795ZM66.8893 38.9403L66.3035 38.501L66.157 39.2331L66.8893 38.9403ZM57.37 39.6723L56.9306 39.0867L56.6378 39.8187L57.37 39.6723ZM43.7501 33.3765V34.9871L45.2146 34.1086L43.7501 33.3765ZM52.83 37.3297L52.5371 38.0618L53.4158 37.9154L52.83 37.3297ZM46.8256 35.1335V35.8656L47.5578 35.5727L46.8256 35.1335ZM46.5327 37.9154L46.3862 38.6474L47.2649 38.3546L46.5327 37.9154ZM47.2649 39.5259L47.4114 40.4044L48.1436 39.8187L47.2649 39.5259ZM54.2945 38.3546L53.7087 37.9154L53.4158 38.501L54.2945 38.3546ZM54.7339 37.7689L54.8803 38.7938L55.9055 38.0618L54.7339 37.7689Z" fill="#A84D3B"/>
<path d="M62.4958 38.6475L62.9351 39.2332L63.5209 38.5011L62.4958 38.6475ZM57.0771 38.3547L57.5164 39.0868L58.1022 38.3547H57.0771ZM48.8759 36.8906L49.1688 38.0619L50.1939 37.1834L48.8759 36.8906ZM64.6925 38.5011L65.1318 39.2332L65.7177 38.3547L64.6925 38.5011ZM60.1525 38.5011L60.4454 39.526L61.4706 38.7939L60.1525 38.5011ZM51.0726 37.769L51.3655 38.3547L51.9513 37.9155L51.0726 37.769ZM48.4365 40.4045L48.2901 41.1366L49.0223 40.8437L48.4365 40.4045ZM47.7043 40.9901L47.5578 41.5758L48.2901 41.4294L47.7043 40.9901ZM52.83 38.2083L53.1229 38.5011L53.2694 38.2083H52.83ZM56.0519 38.6475L56.3448 38.9404L56.6377 38.5011L56.0519 38.6475ZM61.617 39.0868L61.7635 39.3796L62.0564 39.0868H61.617ZM46.972 41.4294L46.5327 41.5758L46.8255 41.8686L46.972 41.4294ZM47.4114 35.4264L47.5578 36.4513L48.7294 35.8657L47.4114 35.4264ZM47.2649 40.6973L46.6791 40.8437L47.1185 41.283L47.2649 40.6973Z" fill="#A84D3B"/>
<path d="M46.8255 40.8436L46.6791 40.1115L45.9468 40.6972L46.8255 40.8436ZM47.5578 36.4512L48.1436 36.744V36.0119L47.5578 36.4512ZM51.8048 37.6225L52.3906 37.7689L52.2442 37.0368L51.8048 37.6225ZM46.0933 35.8655V36.3047L46.6791 36.1583L46.0933 35.8655ZM47.4113 37.6225L47.9971 37.7689L47.8507 37.0368L47.4113 37.6225ZM47.2649 42.8934V43.3326L47.7042 43.1862L47.2649 42.8934ZM45.9468 37.3296L45.361 37.4761L45.8004 37.9153L45.9468 37.3296ZM46.0933 41.4292V42.4541L47.1184 41.8685L46.0933 41.4292Z" fill="#A84D3B"/>
<path d="M46.3863 43.0398L46.972 42.6006L46.2398 42.3077L46.3863 43.0398ZM46.3863 37.3297L46.8256 36.8904L46.2398 36.744L46.3863 37.3297ZM45.5075 38.9402L46.0933 38.501L45.2146 38.0617L45.5075 38.9402ZM48.8759 38.501L49.3153 38.7938L49.4617 38.2082L48.8759 38.501ZM46.3863 44.6504L46.972 44.3575L46.3863 43.9183V44.6504ZM44.7753 47.8715L45.3611 47.5786L44.7753 47.1394V47.8715ZM45.654 34.255L45.8004 35.4263L46.8256 35.1335L45.654 34.255ZM44.3359 36.744L44.7753 37.1833L45.0682 36.4512L44.3359 36.744ZM50.1939 36.4512L50.4868 37.7689L51.6585 37.0368L50.1939 36.4512ZM44.7753 35.8655L45.2146 36.3048L45.5075 35.7191L44.7753 35.8655ZM53.8552 39.233L54.5875 39.5259L54.441 38.7938L53.8552 39.233ZM67.768 38.7938L68.3538 39.0866V38.3546L67.768 38.7938ZM45.9469 40.2579L46.972 39.8187L45.9469 38.9402V40.2579ZM45.0682 34.255L44.4824 35.2799L45.654 35.4263L45.0682 34.255Z" fill="#A84D3B"/>
<path d="M47.9972 38.7938L47.4114 38.6474L47.5578 39.233L47.9972 38.7938ZM44.4824 35.2798L43.8965 35.5727L44.4824 36.0119V35.2798ZM49.7546 36.4512L49.6081 37.0368L50.1939 36.8904L49.7546 36.4512ZM45.9469 37.0368L44.9217 36.5976V37.7689L45.9469 37.0368Z" fill="#A84D3B"/>
<path d="M46.6792 35.4264H46.0933L46.3863 36.0121L46.6792 35.4264ZM44.4824 35.8657L44.3359 36.3049L44.9218 36.1585L44.4824 35.8657ZM49.3153 36.4513L48.583 35.8657L48.4366 36.8906L49.3153 36.4513Z" fill="#A84D3B"/>
<path d="M34.5237 60.6095V60.0238L33.9379 60.1703L34.5237 60.6095ZM32.0341 56.3635L31.3018 56.5099L31.7412 57.0956L32.0341 56.3635Z" fill="#964C38"/>
<path d="M31.8876 56.5099L31.1554 57.3884L32.327 57.6812L31.8876 56.5099ZM30.5696 56.3635L29.6909 56.6563L30.4231 57.3884L30.5696 56.3635ZM34.3773 58.4133L33.9379 58.8525L34.5237 58.9989L34.3773 58.4133ZM33.0592 57.8276L32.6199 58.2669L33.2057 58.4133L33.0592 57.8276Z" fill="#964C38"/>
<path d="M33.9379 58.8526L33.645 59.2918L34.2308 59.4382L33.9379 58.8526ZM30.716 57.5349L30.2767 57.9741L30.8625 58.1205L30.716 57.5349Z" fill="#964C38"/>
<path d="M29.9837 57.242L29.3979 57.8277L30.4231 58.2669L29.9837 57.242ZM32.327 59.8775L32.7663 60.0239L32.9127 59.5847L32.327 59.8775ZM34.0844 57.9741L33.9379 58.2669H34.3773L34.0844 57.9741ZM34.3773 59.4382L34.2308 59.7311H34.6702L34.3773 59.4382Z" fill="#964C38"/>
<path d="M29.105 56.9491L28.5192 57.5348L29.3979 57.8276L29.105 56.9491ZM30.2766 59.2918H29.9837L30.1302 59.5846L30.2766 59.2918ZM31.1553 60.4631L31.0089 60.1703L30.716 60.3167L31.1553 60.4631ZM32.1805 56.9491L32.6198 56.5099L32.034 56.3635L32.1805 56.9491ZM30.5695 56.9491L30.1302 57.242L30.716 57.3884L30.5695 56.9491ZM29.8373 57.242L29.3979 57.0956V57.6812L29.8373 57.242Z" fill="#964C38"/>
<path d="M29.8373 57.242V56.8028L29.3979 56.9492L29.8373 57.242ZM33.3521 57.9741L33.645 58.4133L33.9379 57.8277L33.3521 57.9741ZM32.7663 56.6563L32.6199 57.6812L33.645 57.3884L32.7663 56.6563Z" fill="#964C38"/>
<path d="M32.327 57.2421L32.7663 57.6813L32.9127 57.0957L32.327 57.2421ZM28.8122 58.7062L28.5192 59.1454H28.9586L28.8122 58.7062ZM31.4482 56.3636L31.0089 56.2172V56.6564L31.4482 56.3636ZM30.5696 58.999L30.8625 59.2919L31.1553 58.8526L30.5696 58.999ZM31.7412 60.756L31.4482 61.1952L32.0341 61.3416L31.7412 60.756ZM28.6657 57.6813L28.3728 58.1205H28.9586L28.6657 57.6813Z" fill="#964C38"/>
<path d="M29.9837 60.7559L29.5444 60.6095L29.6908 61.1952L29.9837 60.7559ZM28.3728 58.4133H28.8122L28.5192 57.9741L28.3728 58.4133Z" fill="#964C38"/>
<path d="M27.9334 60.1702L28.2263 60.0238L28.0799 59.5846L27.9334 60.1702ZM28.2263 58.5597H28.5192L28.3728 58.1204L28.2263 58.5597ZM29.2515 58.1204V58.5597L29.6908 58.2668L29.2515 58.1204ZM27.787 59.4382H28.3728L28.0799 58.8525L27.787 59.4382ZM28.6657 59.5846V60.0238L29.1051 59.731L28.6657 59.5846ZM31.5947 57.8276L31.1553 57.974L31.5947 58.4133V57.8276ZM33.645 60.0238L33.7915 60.4631L34.2308 60.1702L33.645 60.0238ZM30.716 56.8027L30.8625 57.242L31.3018 56.9491L30.716 56.8027ZM32.1805 58.4133L31.8876 57.974L31.7412 58.5597L32.1805 58.4133Z" fill="#964C38"/>
<path d="M51.0726 48.7499C50.9261 48.7499 50.6332 48.7499 50.4868 48.6035C50.0474 48.3106 49.901 47.5786 50.1939 47.1393C50.3403 46.9929 52.6835 43.479 57.9558 43.9182C58.5416 43.9182 58.9809 44.5039 58.9809 45.0895C58.9809 45.6752 58.3951 46.1144 57.8093 46.1144C53.8551 45.8216 52.0977 48.3106 52.0977 48.457C51.6584 48.6035 51.3655 48.7499 51.0726 48.7499ZM72.7472 45.6752C72.6008 45.6752 72.3079 45.6752 72.1614 45.5288C70.9898 44.6503 69.2324 45.2359 69.086 45.2359C68.5002 45.3823 67.9144 45.0895 67.7679 44.5039C67.6215 43.9182 67.9144 43.3326 68.5002 43.1861C68.6466 43.1861 71.2827 42.3077 73.333 43.7718C73.7724 44.0646 73.9188 44.7967 73.6259 45.2359C73.333 45.5288 73.0401 45.6752 72.7472 45.6752Z" fill="#AF361A"/>
<path d="M56.3449 56.5099C57.4772 56.5099 58.3952 55.5922 58.3952 54.4601C58.3952 53.328 57.4772 52.4103 56.3449 52.4103C55.2125 52.4103 54.2946 53.328 54.2946 54.4601C54.2946 55.5922 55.2125 56.5099 56.3449 56.5099Z" fill="#4F2B23"/>
<path d="M71.5757 55.485C72.7081 55.485 73.626 54.5673 73.626 53.4352C73.626 52.3032 72.7081 51.3854 71.5757 51.3854C70.4434 51.3854 69.5254 52.3032 69.5254 53.4352C69.5254 54.5673 70.4434 55.485 71.5757 55.485Z" fill="#4F2B23"/>
<path d="M64.8389 66.9051C64.3996 66.9051 63.9602 66.6123 63.8138 66.0266C63.6673 65.441 64.1067 64.8553 64.6925 64.8553C64.6925 64.8553 66.3034 64.5625 66.4499 63.2448C66.5963 61.9271 65.2783 58.2667 64.546 56.3633C64.2531 55.7777 64.546 55.192 65.1318 55.0456C65.7176 54.7528 66.3034 55.0456 66.4499 55.6313C66.7428 56.2169 68.6466 61.195 68.5002 63.5376C68.3537 65.7338 66.3034 66.9051 65.1318 67.0515C64.9854 66.9051 64.8389 66.9051 64.8389 66.9051Z" fill="#B4603F"/>
<path d="M59.8596 73.0547C57.9393 73.0363 56.0759 72.3997 54.5459 71.2393C53.0159 70.0789 51.9006 68.4564 51.3655 66.6125C51.2191 66.0268 51.512 65.4411 52.0978 65.2947C52.6836 65.1483 53.2694 65.4411 53.4158 66.0268C53.826 67.4187 54.6748 68.6409 55.8359 69.5115C56.997 70.3821 58.4083 70.8545 59.8596 70.8584C60.4454 70.8584 60.8848 71.4441 60.8848 71.8834C60.8848 72.6154 60.4454 73.0547 59.8596 73.0547Z" fill="#CF7653"/>
<path d="M57.6628 66.466C53.5622 66.466 50.3403 62.0736 50.3403 56.8027C50.3403 51.5318 53.7087 47.1393 57.6628 47.1393C61.617 47.1393 64.9854 51.5318 64.9854 56.8027C64.9854 62.0736 61.617 66.466 57.6628 66.466ZM57.6628 48.6035C54.4409 48.6035 51.8048 52.2638 51.8048 56.8027C51.8048 61.3415 54.4409 65.0018 57.6628 65.0018C60.8848 65.0018 63.5209 61.3415 63.5209 56.8027C63.5209 52.2638 60.8848 48.6035 57.6628 48.6035Z" fill="white"/>
<path d="M64.5461 54.7528L63.228 54.0208C63.228 54.0208 64.1067 52.5566 65.5712 52.5566C67.0357 52.5566 68.0609 53.2887 68.0609 53.4351L67.1822 54.6064C67.1822 54.6064 66.4499 54.0208 65.5712 54.0208C64.9854 53.8744 64.5461 54.7528 64.5461 54.7528ZM39.7374 54.3722L39.9863 52.908L50.9701 54.8114L50.7211 56.2756L39.7374 54.3722Z" fill="white"/>
<path d="M35.6954 20.0528C35.6954 20.0528 28.3729 17.1245 22.5149 27.3735C16.071 38.7937 24.4187 53.8744 24.4187 53.8744C24.4187 53.8744 26.9084 50.214 31.7412 50.9461C35.6954 51.5317 36.867 53.728 38.0386 55.0457C39.2102 56.217 43.8966 55.1921 45.5075 49.7748C46.6791 45.5288 46.6792 41.4292 45.2146 38.5009C43.7501 35.5726 42.4321 32.2051 44.4824 33.6693C46.5327 35.1334 50.0475 37.0368 55.4662 37.9153C60.8848 38.7937 71.2828 39.6722 76.555 35.1334C81.8272 30.741 82.1201 26.9342 81.9737 23.8595C81.8272 20.7848 80.2163 19.0279 80.2163 19.0279C80.2163 19.0279 77.2873 20.6384 75.8228 20.7848C74.3583 20.9312 73.1867 21.0777 73.3331 19.1743C73.626 14.7819 71.1364 13.3177 71.1364 13.3177C71.1364 13.3177 70.1112 14.6354 68.9396 15.3675C66.4499 16.8317 64.9854 16.9781 62.4958 16.0996C59.2739 15.0747 55.9055 12.1464 49.3153 12C44.6289 12.1464 39.3566 14.6355 35.6954 20.0528Z" fill="#C94112"/>
<path d="M66.4499 16.6855L67.9144 17.8568L68.3537 15.9534L67.3285 16.3927L66.4499 16.6855ZM52.3906 12.5859L52.9764 14.3429L54.4409 13.0251L52.3906 12.5859ZM71.1363 13.6108L70.2576 14.7821L71.7221 14.9285L71.1363 13.6108ZM65.4247 18.7353L63.8137 19.9066L65.4247 21.0779V18.7353ZM60.2989 16.5391L59.8596 17.2711L60.8847 17.4176L60.2989 16.5391ZM47.8507 13.1716L47.2649 14.1965L48.5829 14.4893L47.8507 13.1716ZM49.1687 14.3429L48.7294 15.5142L49.901 15.6606L49.1687 14.3429ZM46.3862 14.9285L47.7042 16.3927L48.8758 14.4893L46.3862 14.9285Z" fill="#FF593E"/>
<path d="M51.3655 15.0749L49.7545 15.2213L50.4868 16.8319L51.3655 15.0749ZM44.9217 13.7572L46.3862 14.9285L46.8255 13.0251L44.9217 13.7572ZM67.6215 20.7851L67.0357 21.2243L67.6215 21.6635V20.7851ZM62.3493 17.7104L61.7635 18.1496L62.4957 18.5888L62.3493 17.7104ZM63.6673 19.3209L64.2531 18.5888L63.228 18.296L63.6673 19.3209ZM70.9898 20.1994L70.404 20.6386L71.1363 20.9315L70.9898 20.1994ZM69.086 18.4424L68.3537 17.7104L67.9144 18.8817L69.086 18.4424ZM72.1614 15.9534L71.4292 15.2213L70.9898 16.539L72.1614 15.9534Z" fill="#FF593E"/>
<path d="M63.8138 20.0529L62.9351 19.3208L62.4958 20.6385L63.8138 20.0529ZM67.1822 19.6136L66.4499 18.8815L66.0106 20.1993L67.1822 19.6136ZM63.8138 18.1495L63.0816 17.4174L62.6422 18.5887L63.8138 18.1495ZM62.4958 17.5638L63.0816 16.5389L61.7635 16.3925L62.4958 17.5638ZM58.688 15.2212L57.8093 14.3427L57.37 15.6604L58.688 15.2212ZM60.5919 16.2461L59.7132 15.514L59.4203 16.6853L60.5919 16.2461ZM51.512 13.3178L50.4868 12.4393L50.0475 13.9035L51.512 13.3178ZM48.8759 14.1963L49.901 13.1714L48.4365 12.5857L48.8759 14.1963ZM55.4661 13.7571L54.7339 13.025L54.2945 14.3427L55.4661 13.7571ZM51.0726 13.6106L52.0978 14.782L52.9765 13.1714L51.0726 13.6106Z" fill="#FF593E"/>
<path d="M50.0475 14.0499L50.9262 15.3677L51.8049 13.6107L50.0475 14.0499ZM51.2191 14.9284L51.512 16.3926L52.9765 15.3677L51.2191 14.9284ZM69.6718 16.6854L69.5254 15.3677L68.3538 16.0997L69.6718 16.6854ZM63.0816 16.8318L63.6674 18.2959L64.839 17.1246L63.0816 16.8318ZM60.4455 15.6605L60.8848 17.271L62.0564 16.2461L60.4455 15.6605ZM58.5416 14.6356L58.8345 16.2461L60.1526 15.3677L58.5416 14.6356ZM46.0933 12.4394L47.1185 13.6107L47.9972 12.293L46.0933 12.4394ZM52.2443 12.5858L51.2191 12.293L51.3655 13.3179L52.2443 12.5858Z" fill="#FF593E"/>
<path d="M49.0223 12.5858L47.9971 12.293L48.1436 13.4643L49.0223 12.5858ZM46.3862 12.8786H45.361L45.9468 13.9035L46.3862 12.8786ZM66.3034 24.2989L65.8641 24.7382L66.4499 25.031L66.3034 24.2989ZM69.3789 22.5419L68.9395 22.2491L68.7931 22.8348L69.3789 22.5419ZM68.3537 20.0529L68.6466 20.785L69.086 20.1993L68.3537 20.0529ZM61.3241 17.1246L61.617 17.8567L62.0564 17.1246H61.3241ZM67.0357 22.2491L66.5963 22.6884L67.1821 22.8348L67.0357 22.2491ZM51.3655 22.3955L50.9261 22.8348L51.512 22.9812L51.3655 22.3955ZM66.8892 17.1246L65.8641 18.0031L67.1821 18.7352L66.8892 17.1246ZM65.5712 23.5668L64.9854 23.274V23.8597L65.5712 23.5668ZM66.0105 22.1027L66.4499 22.2491L66.3034 21.6635L66.0105 22.1027ZM62.0564 21.9563L62.9351 22.1027L62.6422 21.0778L62.0564 21.9563Z" fill="#FF593E"/>
<path d="M65.8641 18.0031L66.3035 16.8317L64.839 16.9782L65.8641 18.0031ZM61.4706 22.6883V23.274L62.0564 23.1275L61.4706 22.6883ZM64.6925 18.8815L65.2783 18.0031L64.1067 17.7102L64.6925 18.8815ZM56.4913 15.0748L57.0771 14.1963L55.7591 13.7571L56.4913 15.0748ZM50.0475 13.4642L50.6333 12.5857L49.3152 12.4393L50.0475 13.4642ZM67.6215 24.4453V25.0309L68.2073 24.8845L67.6215 24.4453ZM64.2532 24.4453L63.5209 24.5917L63.9603 25.0309L64.2532 24.4453ZM53.7088 25.4702L52.9765 25.6166L53.4158 26.2022L53.7088 25.4702ZM62.4958 25.763H61.91L62.2029 26.3487L62.4958 25.763ZM69.8183 18.7351L70.2576 19.4672L70.697 18.5887L69.8183 18.7351ZM59.8597 24.8845L60.299 24.1524H59.4203L59.8597 24.8845ZM55.4662 13.6106L54.1481 13.7571L54.8803 15.0748L55.4662 13.6106ZM62.4958 19.6136L63.0816 18.4423H61.6171L62.4958 19.6136ZM53.7088 20.1993L52.5371 20.9313L53.7088 21.6634V20.1993ZM57.9558 22.1027L56.9307 22.6883L57.9558 23.274V22.1027ZM54.0017 22.9811L54.2945 23.4204L54.5874 22.8347L54.0017 22.9811Z" fill="#FF593E"/>
<path d="M51.512 19.3209L51.2191 19.7601H51.8049L51.512 19.3209ZM56.3448 23.5669L55.9055 23.4205V23.8597L56.3448 23.5669ZM54.7339 21.2243L54.2945 21.9563L55.3197 22.1028L54.7339 21.2243ZM58.3951 26.6416L57.9558 26.4952L58.1022 27.0808L58.3951 26.6416ZM50.4868 16.539L50.1939 18.0032L51.8049 17.4175L50.4868 16.539ZM49.1688 22.3956L49.4617 23.5669L50.4868 22.6884L49.1688 22.3956ZM57.37 14.6357L55.6126 15.5141L57.0771 16.8319L57.6629 15.9534L57.37 14.6357ZM55.9055 16.539L54.7339 17.1247L55.759 18.1496L56.1984 17.2711L55.9055 16.539Z" fill="#FF593E"/>
<path d="M56.0519 18.4424L55.0268 17.8567L54.1481 18.0031L54.441 20.0529L56.0519 18.4424ZM48.4365 22.3955L47.1185 23.1276L48.583 23.8597L48.4365 22.3955ZM56.4913 15.8069L54.1481 15.5141L55.0268 17.4175L56.4913 15.8069ZM54.441 14.4892L53.5623 14.1964L52.5371 14.4892L53.4158 15.9533L54.441 14.4892ZM61.9099 17.8567L60.0061 17.4175L60.299 19.4672L61.9099 17.8567Z" fill="#FF593E"/>
<path d="M62.6422 19.1745L60.7383 18.7353L61.0313 20.7851L62.6422 19.1745Z" fill="#FF593E"/>
<path d="M61.6171 21.0779L60.8848 19.9066L60.0061 21.2243L61.6171 21.0779ZM53.2694 18.1496L52.2443 16.6855L51.3655 17.4176L51.0726 18.296L53.2694 18.1496ZM51.6584 19.3209L50.3404 18.5889L50.0475 20.3458L51.6584 19.3209ZM50.1939 17.2711L49.1688 15.807L47.9972 17.564L50.1939 17.2711ZM59.1274 21.6636L59.7132 20.3458L57.9558 20.1994L59.1274 21.6636ZM56.0519 21.81L57.37 21.2243L56.3448 20.053L56.0519 21.81ZM68.5002 17.564L69.5254 17.2711L68.6467 16.3927L68.5002 17.564ZM47.7043 22.2492L49.0223 21.81L47.9972 20.6387L47.7043 22.2492Z" fill="#FF593E"/>
<path d="M41.9927 21.9563L43.0178 21.5171L42.2856 20.6386L41.9927 21.9563ZM69.6718 15.2213L70.404 15.9533L70.8434 14.782L69.6718 15.2213ZM55.6125 20.9314L55.3196 19.6137L54.0016 20.4922L55.6125 20.9314ZM55.4661 16.6854L53.5622 16.0997L53.8551 18.1495L55.4661 16.6854ZM59.8596 16.9782L57.9558 16.539L58.2486 18.5888L59.8596 16.9782ZM59.4203 19.1744L57.6629 18.7352L57.8093 20.785L59.4203 19.1744ZM57.2235 18.8816L56.1984 19.4673L57.077 20.3457L57.2235 18.8816ZM52.9764 22.9812L52.5371 22.5419L52.3906 23.1276L52.9764 22.9812Z" fill="#FF593E"/>
<path d="M52.0978 21.2243L51.3655 20.3458L50.9261 21.6635L52.0978 21.2243ZM55.4661 19.6137L55.759 20.3458L56.3448 19.6137H55.4661ZM58.1022 15.9534L57.9558 16.6854L58.688 16.3926L58.1022 15.9534ZM60.1525 19.7601L59.7132 18.5888L58.688 19.6137L60.1525 19.7601ZM54.5874 18.7352L53.4158 18.296V19.7601L54.5874 18.7352Z" fill="#FF593E"/>
<path d="M53.4158 18.8817L52.2442 18.2961V19.7602L53.4158 18.8817ZM50.7797 17.564L49.7546 17.1248V18.4425L50.7797 17.564ZM59.4203 18.2961L59.2738 17.8568L58.688 18.2961H59.4203ZM61.0312 23.8598V24.5919L61.7635 24.299L61.0312 23.8598ZM58.688 24.8847H58.1022L58.3951 25.4704L58.688 24.8847ZM59.4203 22.6885V23.2741L60.1525 22.9813L59.4203 22.6885ZM57.6629 19.9066L57.8093 19.1746L56.9306 19.321L57.6629 19.9066ZM57.9558 17.1248L56.6377 17.4176L56.4913 18.0032L57.9558 19.0281V17.1248ZM57.37 16.6855L56.9306 17.1248H57.5164L57.37 16.6855ZM58.5416 19.9066L58.2487 20.3459H58.9809L58.5416 19.9066ZM56.0519 22.2492L55.759 22.8349H56.3448L56.0519 22.2492ZM60.1525 17.2712L59.8596 16.9783L59.5667 17.564L60.1525 17.2712ZM64.9854 21.81L65.1318 21.0779L64.3996 21.2243L64.9854 21.81ZM63.6673 23.4206L63.8138 22.8349H63.0815L63.6673 23.4206ZM49.7546 25.4704L49.901 24.7383L49.1688 24.8847L49.7546 25.4704ZM63.228 20.1994L63.3744 21.0779L64.2531 20.4923L63.228 20.1994Z" fill="#FF593E"/>
<path d="M51.6584 16.3926L52.5371 17.4175L53.1229 15.9534L51.6584 16.3926ZM58.5415 18.0032L58.688 18.7352L59.4203 18.296L58.5415 18.0032ZM63.8138 21.9563L63.5209 21.5171L63.228 22.1028L63.8138 21.9563ZM48.5829 26.3488L48.1436 25.9095L47.8507 26.4952L48.5829 26.3488ZM58.5415 21.6635L57.9558 21.8099L58.5415 22.2492V21.6635ZM57.6629 21.0779L57.5164 20.4922L57.077 20.9314L57.6629 21.0779ZM25.5902 23.2741L27.6405 24.0061L27.4941 21.5171L25.5902 23.2741ZM47.1184 23.5669L46.3862 23.7133L46.8255 24.299L47.1184 23.5669ZM42.2856 19.0281L40.6746 19.3209L41.8462 20.785L42.2856 19.0281ZM38.0385 23.1276L37.5992 22.542L37.1598 23.1276H38.0385ZM43.6036 24.1525L43.1643 23.2741L42.432 24.0061L43.6036 24.1525ZM31.4482 22.542V24.0061L33.0592 23.4205L31.4482 22.542ZM44.7752 16.539V18.0032L46.2397 17.4175L44.7752 16.539ZM47.4113 16.3926L47.2649 17.2711L48.29 16.8319L47.4113 16.3926ZM47.1184 18.1496V19.0281L47.9971 18.7352L47.1184 18.1496ZM22.2219 28.2521L21.3432 30.4483L23.3935 30.3019L22.2219 28.2521ZM21.1967 30.5948L20.7574 32.4981L22.5148 31.6197L21.1967 30.5948ZM25.2973 33.3766V34.2551L26.176 33.9623L25.2973 33.3766ZM23.247 33.2302V33.9623L24.1257 33.6695L23.247 33.2302ZM36.574 19.0281L35.9882 20.1994H37.4527L36.574 19.0281ZM34.0843 23.5669L33.7915 22.9812L33.2057 23.5669H34.0843ZM33.645 24.8846L33.0592 23.7133L32.1805 24.7382L33.645 24.8846ZM43.7501 19.9065L43.1643 21.2243H44.7752L43.7501 19.9065ZM40.3817 23.4205V24.1525L41.114 23.8597L40.3817 23.4205Z" fill="#FF593E"/>
<path d="M29.105 29.7163V30.3019L29.8373 30.1555L29.105 29.7163ZM28.5192 33.523L27.787 33.3766L27.9334 34.1087L28.5192 33.523ZM24.7115 30.5947L24.5651 32.2053L26.0296 31.6196L24.7115 30.5947ZM22.5148 30.5947V32.2053L23.9793 31.6196L22.5148 30.5947ZM24.1257 35.28L23.9793 36.0121L24.858 35.7192L24.1257 35.28ZM48.1436 17.5639L47.9971 19.4673L50.1939 18.7352L48.1436 17.5639ZM44.9217 19.6137L46.5326 20.1994L46.3862 18.1496L44.9217 19.6137ZM42.5785 16.8318L44.043 17.4175L43.8965 15.6605L42.5785 16.8318ZM47.2649 16.9782L46.0933 17.1247L46.8255 18.296L47.2649 16.9782ZM27.0547 32.791H27.6405L27.4941 32.2053L27.0547 32.791ZM27.6405 29.4234V29.8627L28.0799 29.5698L27.6405 29.4234ZM33.9379 30.5947L33.4985 30.8876L33.9379 31.1804V30.5947ZM27.3476 36.0121L26.9083 36.3049L27.3476 36.5977V36.0121ZM25.0044 37.6226L24.7115 37.9154L25.1509 38.2083L25.0044 37.6226ZM30.8624 30.1555L31.0089 30.5947L31.4482 30.1555H30.8624ZM28.2263 31.034L28.5192 31.7661L29.105 31.034H28.2263ZM34.6702 29.8627L34.3772 30.0091L34.8166 30.3019L34.6702 29.8627ZM46.5326 20.9314L45.9468 20.3458L45.6539 21.2242L46.5326 20.9314ZM70.6969 17.7103L71.4292 18.296L71.5756 17.4175L70.6969 17.7103ZM75.2369 21.2242L76.1156 22.542L76.9943 21.0778L75.9691 21.2242H75.2369ZM80.2162 19.3209L79.0446 20.1994L80.3626 20.785L80.2162 19.3209ZM74.944 25.4703L74.2117 25.6167L74.7975 26.2023L74.944 25.4703ZM78.4588 25.6167L77.7265 25.9095L78.3123 26.4952L78.4588 25.6167ZM77.1407 23.5669L76.5549 22.542L75.8227 23.7133L77.1407 23.5669ZM80.6555 21.9563L80.0697 21.0778L79.3375 22.1027L80.6555 21.9563ZM74.944 24.1525L74.3582 23.274L73.6259 24.2989L74.944 24.1525ZM73.4795 21.6635L72.8937 20.6386L72.3079 21.8099L73.4795 21.6635ZM78.3123 21.6635V20.3458L76.9943 20.9314L78.3123 21.6635ZM76.1156 27.52L75.8227 27.0808L75.5298 27.6665L76.1156 27.52ZM75.9691 24.8846V25.6167L76.7014 25.1774L75.9691 24.8846ZM74.0653 26.6416L73.4795 26.9344L74.0653 27.3736V26.6416ZM74.944 21.2242L73.4795 21.3707L74.2117 22.6884L74.944 21.2242Z" fill="#FF593E"/>
<path d="M73.0402 26.2023L73.4796 26.4952V25.9095L73.0402 26.2023ZM72.8937 22.9812L73.3331 23.2741V22.542L72.8937 22.9812ZM77.5801 24.0061L77.8731 24.8846L78.4589 24.0061H77.5801ZM76.7015 22.542L77.7266 22.3956L77.1408 21.3707L76.7015 22.542ZM78.3124 20.4922L78.8982 21.3707L79.6304 20.4922H78.3124ZM78.7518 23.2741L79.3376 24.0061L79.7769 23.1276L78.7518 23.2741ZM34.8167 19.9065L34.9631 21.2243L36.4276 20.4922L34.8167 19.9065ZM25.8832 27.2272L26.3225 27.9593L26.7619 27.2272H25.8832ZM24.4187 26.2023L25.0045 27.3736L25.8832 26.0559L24.4187 26.2023ZM24.858 24.1525L25.8832 25.1774L26.3225 23.5669L24.858 24.1525ZM40.9676 16.9783L40.6747 17.5639L41.4069 17.7103L40.9676 16.9783ZM40.0889 16.6854L39.796 17.4175H40.5282L40.0889 16.6854ZM47.8508 19.7601L46.3862 19.4673L46.8256 21.0779L47.8508 19.7601ZM46.8256 21.6635L45.654 21.3707L45.9469 22.8348L46.8256 21.6635ZM61.6171 21.8099L60.299 21.5171L60.7384 22.9812L61.6171 21.8099ZM40.9676 16.6854L41.6998 15.6605L40.0889 15.3677L40.9676 16.6854Z" fill="#FF593E"/>
<path d="M41.114 18.2959L40.2353 17.271L39.6495 18.7352L41.114 18.2959ZM40.2353 16.9782L39.7959 15.6605L38.6243 16.6854L40.2353 16.9782ZM39.0637 18.4424L39.7959 17.271L38.3314 16.9782L39.0637 18.4424ZM43.8965 16.539L44.6288 16.6854L44.4824 15.8069L43.8965 16.539ZM42.5785 16.6854L41.4069 16.2462L41.5533 17.5639L42.5785 16.6854ZM41.2605 14.782L41.4069 15.6605L42.2856 15.2213L41.2605 14.782ZM46.5326 14.9284L44.7753 15.6605L46.2398 17.1246L46.5326 14.9284ZM24.1257 34.1086V34.6943L24.858 34.5479L24.1257 34.1086ZM25.8832 27.0808H25.2974L25.5903 27.6664L25.8832 27.0808ZM22.3683 36.012L21.7826 36.1584L22.2219 36.5977L22.3683 36.012ZM23.2471 35.28L23.1006 34.6943L22.6612 35.28H23.2471ZM23.2471 29.277L24.5651 30.1555L24.858 28.3985L23.2471 29.277ZM28.5193 26.6415L29.1051 26.7879V26.0559L28.5193 26.6415ZM24.5651 24.4453L23.8329 25.6166L25.4438 25.9095L24.5651 24.4453ZM26.469 30.0091L26.3225 31.034L27.4941 30.5947L26.469 30.0091ZM27.787 24.5917L26.6154 24.4453L26.9083 25.7631L27.787 24.5917ZM29.6909 27.6664L28.3728 27.8128L29.1051 28.9842L29.6909 27.6664ZM27.9335 25.9095L26.6154 26.0559L27.4941 27.2272L27.9335 25.9095ZM31.0089 22.6884L29.8373 22.8348L30.5696 24.0061L31.0089 22.6884ZM22.3683 27.8128L24.4187 28.1057L23.6864 25.7631L22.3683 27.8128ZM20.7574 32.7909L20.3181 34.5479L22.5148 34.1086L20.7574 32.7909ZM26.9083 31.4732L26.0296 31.766L26.7619 32.6445L26.9083 31.4732ZM23.2471 32.4981L24.2722 32.7909L24.1257 31.6196L23.2471 32.4981ZM25.0045 35.28V35.8656L25.5903 35.5728L25.0045 35.28ZM23.2471 36.5977L22.8077 36.7441L23.1006 37.1833L23.2471 36.5977ZM35.9882 22.9812L35.256 23.5668L36.1347 24.0061L35.9882 22.9812ZM34.8166 21.3706L34.0844 21.8099L34.9631 22.3955L34.8166 21.3706ZM31.8876 20.9314L30.716 21.8099L32.1805 22.5419L31.8876 20.9314Z" fill="#FF593E"/>
<path d="M36.8669 20.6386L36.2811 21.0778L36.8669 21.5171V20.6386ZM33.7915 23.2741L33.2057 23.7133L33.9379 24.1525L33.7915 23.2741ZM35.4024 22.9812L35.8417 23.4205L36.1347 22.8348L35.4024 22.9812ZM25.2973 28.3985L25.7367 29.4234L26.6154 28.5449L25.2973 28.3985ZM29.8373 25.9095L30.1302 26.3487L30.4231 25.7631L29.8373 25.9095ZM40.3817 20.6386L40.6746 21.0778L40.9675 20.4922L40.3817 20.6386ZM38.3314 20.9314L38.6243 21.2243L38.9172 20.785L38.3314 20.9314ZM37.7456 19.7601L38.3314 20.3458L38.7708 19.4673L37.7456 19.7601ZM30.1302 24.2989L30.4231 24.7382L30.716 24.1525L30.1302 24.2989ZM34.6702 22.542L34.0843 22.9812L34.8166 23.4205L34.6702 22.542ZM33.4986 22.542L33.9379 21.6635H32.7663L33.4986 22.542ZM32.4734 21.0778L32.9127 19.7601H31.3018L32.4734 21.0778ZM35.9882 22.2492L35.5489 21.9563L35.4024 22.542L35.9882 22.2492ZM34.3772 24.0061L33.9379 24.2989L34.5237 24.5918L34.3772 24.0061ZM32.1805 23.5669L31.7412 23.1276L31.5947 23.8597L32.1805 23.5669ZM22.8077 38.0619L23.247 37.6226L22.6612 37.3298L22.8077 38.0619ZM20.9038 40.6973L21.1967 40.4045L20.7574 40.1117L20.9038 40.6973ZM21.3432 38.6475L21.7825 38.2083L21.1967 38.0619L21.3432 38.6475ZM20.9038 41.7222L21.3432 42.1614L21.4896 41.4294L20.9038 41.7222ZM21.6361 40.1117L22.3683 39.8188L21.6361 39.3796V40.1117Z" fill="#FF593E"/>
<path d="M23.2471 39.526L23.8329 39.2332L23.2471 38.7939V39.526ZM20.4645 35.28L21.1967 36.0121L21.6361 34.9872L20.4645 35.28ZM21.0503 36.1585L20.3181 37.3298L22.0755 37.4762L21.0503 36.1585ZM20.3181 37.9155V39.2332L21.3432 38.6475L20.3181 37.9155ZM20.9038 40.8437L20.611 41.283L21.1967 41.4294L20.9038 40.8437ZM28.5193 24.7382L29.398 25.4703L29.8373 24.1526L28.5193 24.7382Z" fill="#FF593E"/>
<path d="M28.6657 20.9314L28.0799 22.2491L29.5444 22.3955L28.6657 20.9314ZM29.6908 23.7133L29.3979 24.1525L30.1302 24.2989L29.6908 23.7133ZM28.6657 22.9812L28.2263 23.8597L29.3979 24.0061L28.6657 22.9812ZM33.7914 25.3238L32.7663 25.031L33.0592 26.2023L33.7914 25.3238ZM28.9586 25.3238L28.0799 25.1774L28.2263 26.2023L28.9586 25.3238ZM45.0681 18.8816L43.8965 18.5888L44.1894 19.9065L45.0681 18.8816ZM43.0178 18.4424L43.7501 18.7352V17.8567L43.0178 18.4424ZM43.4572 13.4643L44.7752 14.6356L45.2146 12.8786L43.4572 13.4643ZM41.6998 17.7103L41.5533 19.028L42.8714 18.5888L41.6998 17.7103ZM41.6998 14.4892L42.8714 15.5141L43.4572 13.9035L41.6998 14.4892ZM37.0134 18.7352L38.4779 19.028L38.0385 17.4175L37.0134 18.7352ZM43.3107 19.4673L42.5785 19.3208L42.7249 20.0529L43.3107 19.4673Z" fill="#FF593E"/>
<path d="M41.8462 22.9812L41.4069 22.8348L41.5533 23.5669L41.8462 22.9812ZM31.5947 25.3239L31.1553 25.1774L31.3018 25.9095L31.5947 25.3239ZM33.2057 19.7601L33.7914 20.9314L34.6702 19.7601H33.2057ZM43.1643 14.4892L44.1894 15.3677L44.6288 14.05L43.1643 14.4892ZM29.105 20.6386L30.4231 21.8099L31.0089 19.9065L29.105 20.6386ZM34.3772 27.0808L34.8166 27.6665L35.1095 26.788L34.3772 27.0808ZM44.1894 22.3956L44.7752 22.8348L45.0681 22.2492L44.1894 22.3956ZM38.7707 19.9065L39.2101 20.785L39.9424 20.053L38.7707 19.9065ZM40.2353 18.7352L39.6495 19.4673L40.6746 19.6137L40.2353 18.7352ZM38.6243 18.296L39.0637 19.1745L39.7959 18.296H38.6243ZM37.3062 19.1745L37.7456 20.053L38.4779 19.3209L37.3062 19.1745ZM37.7456 21.6635L37.1598 21.5171L37.3062 22.1028L37.7456 21.6635ZM40.0888 22.3956L39.503 22.2492L39.6495 22.9812L40.0888 22.3956ZM35.1095 27.6665L35.5488 28.1057L35.8417 27.3737L35.1095 27.6665ZM34.9631 25.6167L34.8166 26.0559L35.4024 26.2023L34.9631 25.6167ZM32.1805 24.7382L31.8876 24.1525L31.3018 24.7382H32.1805Z" fill="#FF593E"/>
<path d="M32.9127 28.1056V28.8377L33.645 28.5448L32.9127 28.1056ZM31.5947 24.8845L31.0089 25.4701L31.7412 25.9094L31.5947 24.8845Z" fill="#FF593E"/>
<path d="M31.1554 24.8845L31.4483 25.3237L31.7412 24.7381L31.1554 24.8845ZM27.9335 27.3735L27.0547 27.9592L28.2264 28.3984L27.9335 27.3735ZM30.1302 27.9592L30.716 28.3984L30.8625 27.6664L30.1302 27.9592ZM33.2057 26.3486L33.7915 26.7879L33.9379 26.0558L33.2057 26.3486ZM30.716 29.5697L31.1554 30.009L31.4483 29.2769L30.716 29.5697ZM31.4483 26.2022L31.1554 26.6415H31.8876L31.4483 26.2022ZM50.1939 20.1993L48.8759 19.76L49.1688 21.3706L50.1939 20.1993ZM40.3817 21.0777L39.7959 20.9313L39.9424 21.6634L40.3817 21.0777ZM32.7663 28.1056L32.1805 27.9592L32.327 28.6913L32.7663 28.1056Z" fill="#FF593E"/>
<path d="M50.7797 36.0119L51.3655 35.2799L50.3403 35.1334L50.7797 36.0119ZM61.617 38.6474L62.3493 37.6225L61.0312 37.3296L61.617 38.6474ZM64.3996 38.6474L63.0815 36.8904L61.7635 38.6474H64.3996ZM59.4203 38.501L61.1777 38.6474L60.7383 36.8904L59.4203 38.501ZM48.8758 34.5478L49.4616 34.255L48.8758 33.8157V34.5478ZM47.5578 32.9372L47.1184 33.5229L47.9971 33.8157L47.5578 32.9372ZM44.043 32.7908L44.7752 33.3765L45.0681 32.498L44.043 32.7908ZM47.4113 34.255L48.1436 35.1334L48.7294 33.8157L47.4113 34.255Z" fill="#AF2500"/>
<path d="M48.7294 34.6942L47.8507 35.5727L49.1687 36.1583L48.7294 34.6942ZM59.7132 38.5009L59.2738 37.0368L57.8093 38.3545L59.7132 38.5009ZM50.9261 36.744L50.6332 35.1334L49.3152 36.1583L50.9261 36.744ZM54.0016 37.4761L53.4158 36.0119L52.2442 37.1832L54.0016 37.4761ZM44.3359 31.4731L44.7752 31.1802L44.3359 30.741V31.4731ZM49.901 35.2798L49.6081 34.5478L49.0223 35.1334L49.901 35.2798ZM60.1525 31.0338L60.7383 30.741L60.1525 30.4482V31.0338ZM47.1184 30.8874L47.5578 31.3267L47.7042 30.741L47.1184 30.8874ZM48.8758 31.9123L48.1436 31.7659L48.29 32.6444L48.8758 31.9123ZM50.6332 31.9123V31.3267L50.0475 31.4731L50.6332 31.9123ZM45.6539 29.8625H46.2397L45.9468 29.2769L45.6539 29.8625ZM57.077 30.5946L57.6629 30.4482L57.37 29.8625L57.077 30.5946ZM50.9261 29.7161H51.512L51.219 28.984L50.9261 29.7161ZM52.0977 30.4482L51.6584 31.0338L52.3906 31.1802L52.0977 30.4482ZM55.4661 37.9153L56.7842 38.2081L56.4913 36.744L55.4661 37.9153ZM48.8758 32.6444L48.1436 33.8157L49.6081 33.9621L48.8758 32.6444ZM56.7842 32.3516L56.6377 31.9123L56.1984 32.3516H56.7842ZM59.5667 34.6942L60.299 33.9621L59.2738 33.6693L59.5667 34.6942ZM55.9055 31.1802L56.1984 31.4731L56.3448 31.0338L55.9055 31.1802ZM54.7339 29.8625L55.0268 30.0089V29.4233L54.7339 29.8625ZM60.5919 37.0368L60.8848 35.5727L59.2738 36.0119L60.5919 37.0368ZM54.0016 37.6225L55.4661 37.7689L55.1732 36.1583L54.2945 36.4512L54.0016 37.6225Z" fill="#AF2500"/>
<path d="M55.1732 36.4511L56.3448 36.0118L55.4661 34.9869L54.8803 35.719L55.1732 36.4511ZM56.6377 37.7688L57.5164 38.208L58.3951 38.0616L57.8093 36.4511L56.6377 37.7688ZM57.8093 35.1333L58.8345 36.7439L59.7132 36.1582L60.1525 35.1333H57.8093ZM60.4454 33.8156L61.4706 34.4013L61.7635 33.0836L60.4454 33.8156ZM60.8848 36.3047L61.7635 37.9152L63.0815 36.3047H60.8848ZM51.9513 35.5726L50.9261 36.7439L52.5371 37.1831L51.9513 35.5726ZM53.8552 33.962L52.3907 34.4013L53.4158 35.719L53.8552 33.962ZM63.6673 32.0587L62.7886 32.3515L63.3744 33.0836L63.6673 32.0587Z" fill="#AF2500"/>
<path d="M69.5253 32.498L68.5002 32.7908L69.086 33.6693L69.5253 32.498ZM55.6125 36.4512L57.37 37.0368V34.987L55.6125 36.4512ZM45.9468 34.5478L47.4113 35.2799L47.2649 33.9621L45.9468 34.5478ZM54.148 34.1085L55.3196 33.6693L54.441 32.6444L54.148 34.1085ZM57.6629 32.7908L58.1022 33.2301L58.3951 32.6444L57.6629 32.7908ZM55.9055 33.3765L55.759 32.7908L55.1732 33.3765H55.9055ZM52.9765 36.8904V36.1583L52.2442 36.3047L52.9765 36.8904ZM50.1939 33.6693L50.4868 34.8406L51.512 33.9621L50.1939 33.6693Z" fill="#AF2500"/>
<path d="M55.6126 34.4013L56.6377 35.1334L56.7842 33.6692L55.6126 34.4013ZM57.2235 34.4013L58.2487 34.987L58.3951 33.5228L57.2235 34.4013ZM60.299 35.8654L61.3241 36.5975L61.4706 35.1334L60.299 35.8654ZM51.8049 34.2549L51.9513 34.8405L52.3907 34.4013L51.8049 34.2549ZM53.8552 32.9372L53.5623 33.6692L54.2945 33.5228L53.8552 32.9372ZM53.8552 36.0119L55.1732 35.8654L55.4661 35.2798L54.0016 34.1085L53.8552 36.0119Z" fill="#AF2500"/>
<path d="M53.7087 36.1583L54.1481 35.8655L53.7087 35.7191V36.1583ZM52.83 32.7908L53.1229 32.3515H52.5371L52.83 32.7908ZM54.441 31.3266L54.7339 30.8874L54.2945 30.741L54.441 31.3266ZM50.9262 35.2798L51.2191 35.7191L51.6584 35.1334L50.9262 35.2798ZM46.3862 32.6444L46.2398 33.3764L46.972 33.23L46.3862 32.6444ZM50.1939 33.3764V32.4979L49.3152 32.9372L50.1939 33.3764ZM59.4203 37.0368L58.5416 35.8655L57.8093 37.3296L59.4203 37.0368ZM52.5371 34.6942V33.9621L51.8049 34.4013L52.5371 34.6942ZM45.8004 31.4731L46.0933 32.0587L46.3862 31.3266L45.8004 31.4731ZM62.4957 30.741L62.7886 31.3266L63.0815 30.741H62.4957ZM52.9765 31.1802L53.5623 31.0338L53.1229 30.4482L52.9765 31.1802ZM53.8552 31.7659L54.0016 32.3515L54.441 31.9123L53.8552 31.7659ZM45.8004 48.8963L43.7501 49.3355L45.0681 51.2389L45.8004 48.8963ZM60.7383 32.6444H61.4706L61.0312 31.9123L60.7383 32.6444ZM69.086 35.5726L70.5505 35.4262L69.6718 34.1085L69.086 35.5726ZM73.3331 30.0089L73.626 30.741L74.0653 30.1553L73.3331 30.0089ZM68.3538 30.5946L68.5002 31.1802L68.9395 30.741L68.3538 30.5946ZM41.114 52.5567L40.3817 51.0925L39.2101 52.4102L41.114 52.5567ZM66.157 37.6224L66.4499 36.1583L64.8389 36.5975L66.157 37.6224ZM63.5209 37.476L63.6673 36.744L62.7886 36.8904L63.5209 37.476ZM63.9602 35.7191L64.2531 34.8406L63.228 35.1334L63.9602 35.7191ZM46.5326 42.8933L46.0933 40.5507L44.3359 41.722L46.5326 42.8933ZM45.9469 40.4043L45.361 38.5009L44.3359 40.1115L45.9469 40.4043ZM41.114 39.8186L40.6746 39.0866L40.0888 39.8186H41.114ZM43.0179 39.0866L42.5785 38.3545L41.9927 39.0866H43.0179ZM37.7456 53.4351L37.5992 52.1174L36.2811 52.8495L37.7456 53.4351ZM38.3314 52.7031L38.9172 53.1423L39.0637 52.2638L38.3314 52.7031ZM38.185 51.5318L39.0637 52.1174L39.3566 50.7997L38.185 51.5318ZM67.6215 34.2549L68.0608 33.3764H66.8893L67.6215 34.2549ZM71.2828 31.3266L71.4292 30.5946L70.6969 30.741L71.2828 31.3266ZM39.6495 45.0895L39.3566 44.3575L38.7708 44.9431L39.6495 45.0895ZM38.3314 41.4292L38.9172 41.1364L38.4779 40.5507L38.3314 41.4292Z" fill="#AF2500"/>
<path d="M43.0178 42.1613L42.2856 40.6971L41.2604 41.8685L43.0178 42.1613ZM44.9217 40.99L44.1894 39.5258L43.1643 40.8436L44.9217 40.99ZM41.2604 37.6225L40.9675 37.0368L40.3817 37.6225H41.2604ZM62.9351 36.1583L63.3744 34.2549L61.1777 34.8406L62.9351 36.1583ZM66.4499 34.5478L64.8389 33.8157V35.8655L66.4499 34.5478ZM68.3537 37.476L67.0357 36.8904V38.5009L68.3537 37.476ZM75.8227 35.8655L74.5047 35.1334L74.2118 36.744L75.8227 35.8655ZM63.8138 37.0368H64.9854L64.3996 35.7191L63.8138 37.0368ZM39.7959 41.2828L39.3566 41.5756L39.7959 42.0149V41.2828ZM41.114 44.5039L40.8211 44.2111L40.6746 44.6503L41.114 44.5039ZM34.9631 46.5537L35.256 46.1145H34.6702L34.9631 46.5537ZM38.0385 38.6474L38.3314 38.2081H37.7456L38.0385 38.6474ZM39.2101 36.1583L39.503 35.7191L38.9172 35.5727L39.2101 36.1583ZM37.8921 45.5288L37.4527 45.0896L37.3063 45.8216L37.8921 45.5288ZM39.7959 43.479L39.2101 43.0398L38.9172 43.9183L39.7959 43.479ZM34.6702 47.725L34.9631 47.2858H34.3773L34.6702 47.725ZM64.9854 33.0836L65.5712 33.6693L65.8641 32.7908L64.9854 33.0836ZM40.0888 55.3385L39.503 54.0208L38.4779 55.1921L40.0888 55.3385ZM43.6036 45.5288L42.8714 45.0896L42.7249 46.1145L43.6036 45.5288ZM45.5075 45.8216L44.3359 45.0896L44.1894 46.5537L45.5075 45.8216ZM45.9468 47.8714L44.6288 47.4322L44.9217 49.0427L45.9468 47.8714ZM69.9647 37.6225L70.404 37.0368L69.6718 36.8904L69.9647 37.6225ZM70.8434 37.9153L71.7221 37.6225L70.5505 37.1832L70.8434 37.9153ZM63.3744 34.4014L64.3996 34.6942L64.2531 33.5229L63.3744 34.4014Z" fill="#AF2500"/>
<path d="M64.839 32.3516L65.7177 32.6444L65.5712 31.6195L64.839 32.3516ZM50.4868 32.498L51.6584 32.9373L51.512 31.4731L50.4868 32.498ZM69.9647 36.1584L70.8434 37.3297L71.5757 36.0119L69.9647 36.1584Z" fill="#AF2500"/>
<path d="M71.4292 35.4263L70.5505 36.5976L72.015 36.8905L71.4292 35.4263ZM67.1821 37.7689L66.3034 37.4761L66.4499 38.3546L67.1821 37.7689ZM68.3537 38.3546L70.1111 38.0618L69.5253 36.8905L68.3537 38.3546ZM64.546 38.6474H66.3034L64.8389 36.8905L64.546 38.6474ZM41.8462 38.6474L41.5533 38.0618L40.9675 38.6474H41.8462ZM43.7501 45.6753L44.1894 45.3825L43.7501 44.9432V45.6753ZM42.432 36.3048L42.8714 35.8656L42.1391 35.7192L42.432 36.3048ZM41.9927 37.3297L42.432 37.6225L42.5785 37.0369L41.9927 37.3297ZM44.9217 42.6006L43.4572 42.3078L44.043 44.0648L44.9217 42.6006ZM41.6997 47.4323L40.9675 47.5787L41.4069 48.1643L41.6997 47.4323ZM46.0933 47.4323L46.2397 45.9681L44.6288 46.5538L46.0933 47.4323ZM41.8462 43.4791L41.4069 42.4542L40.5282 43.3327L41.8462 43.4791ZM43.3107 48.8964L44.3359 48.4572L43.4572 47.4323L43.3107 48.8964ZM40.0888 46.993L41.114 46.261L39.9423 45.5289L40.0888 46.993ZM42.5785 47.7251L43.4572 46.993L42.2856 46.4074L42.5785 47.7251ZM41.2604 52.1175L42.2856 51.3854L41.114 50.6534L41.2604 52.1175ZM46.5326 43.3327L44.4823 44.2112L46.3862 45.8217L46.5326 43.3327ZM45.2146 38.3546L44.4823 36.5976L43.0178 38.2082L45.2146 38.3546ZM40.5282 42.4542L41.2604 41.7221L40.2352 41.2829L40.5282 42.4542ZM43.3107 39.6723L42.2856 39.9652L43.1643 40.9901L43.3107 39.6723ZM40.5282 38.2082L40.0888 37.6225L39.7959 38.2082H40.5282ZM41.2604 36.1584L41.6997 35.7192L41.114 35.5727L41.2604 36.1584ZM35.4024 52.1175L35.8417 51.239H34.8166L35.4024 52.1175ZM38.7707 55.0458L39.0637 54.3137H38.185L38.7707 55.0458ZM41.4069 54.0209L42.1391 52.7032H40.3817L41.4069 54.0209ZM36.4276 52.5568L36.7204 51.8247H35.9882L36.4276 52.5568ZM38.6243 52.8496L38.9172 52.2639H38.185L38.6243 52.8496ZM39.2101 50.0677L38.6243 49.7749L38.7707 50.507L39.2101 50.0677ZM43.6036 44.2112L42.5785 43.4791L42.2856 44.7968L43.6036 44.2112ZM40.8211 48.75L40.3817 48.4572V49.0428L40.8211 48.75ZM70.9898 33.9622L70.6969 33.5229L70.404 33.9622H70.9898ZM73.0401 33.9622L72.7472 33.5229L72.4543 33.9622H73.0401ZM73.4795 35.1335L73.0401 34.5478L72.4543 35.2799L73.4795 35.1335ZM41.4069 50.2141L40.8211 50.0677V50.6534L41.4069 50.2141ZM38.185 54.0209L38.4778 53.2888H37.7456L38.185 54.0209ZM39.2101 53.4352L39.3566 54.4601L40.3817 53.8745L39.2101 53.4352Z" fill="#AF2500"/>
<path d="M41.114 53.7281L41.4069 55.0458L42.725 54.1674L41.114 53.7281ZM37.7456 54.3138H38.3314L38.185 53.7281L37.7456 54.3138ZM37.7456 52.5568L38.0385 52.1176H37.3063L37.7456 52.5568ZM39.9424 51.9711H40.5282L40.2353 51.3855L39.9424 51.9711ZM40.9675 34.5479L40.8211 35.28L41.5533 35.1335L40.9675 34.5479ZM43.0178 32.7909L42.8714 33.3766L43.4572 33.2302L43.0178 32.7909ZM42.1391 34.4015L41.9927 34.9871L42.5785 34.8407L42.1391 34.4015ZM41.6998 32.3517L41.114 32.2053L41.2605 32.7909L41.6998 32.3517ZM42.1391 33.3766L41.8462 33.9622H42.5785L42.1391 33.3766ZM44.043 38.6475L43.7501 39.0867L44.4824 39.2331L44.043 38.6475ZM44.1895 36.1584L43.3107 35.8656L43.4572 37.0369L44.1895 36.1584ZM44.043 36.012L43.6036 34.5479L42.2856 35.5728L44.043 36.012Z" fill="#AF2500"/>
<path d="M43.6036 34.5478V33.5229L42.7249 33.9622L43.6036 34.5478ZM42.5785 49.0428L41.4069 48.8964L41.6998 50.2141L42.5785 49.0428Z" fill="#AF2500"/>
<path d="M44.3358 52.4102L44.1894 50.9461L42.7249 51.6781L44.3358 52.4102ZM41.9927 50.5068V49.9212L41.4068 50.214L41.9927 50.5068ZM43.3107 50.6532V49.4819L42.1391 50.0676L43.3107 50.6532ZM37.5991 51.2389L38.7707 50.9461L37.892 50.0676L37.5991 51.2389ZM41.8462 48.7499L42.8713 48.457L41.9927 47.5786L41.8462 48.7499ZM66.157 35.2798L67.3285 35.719L67.1821 34.4013L66.157 35.2798ZM68.5001 36.4511L67.6215 36.0119V37.0368L68.5001 36.4511ZM69.2324 36.8903L69.6718 35.5726L68.0608 35.8654L69.2324 36.8903ZM74.0653 36.8903L72.7472 35.8654V37.3296L74.0653 36.8903ZM68.0608 34.8405L68.6466 35.1334L68.5001 34.2549L68.0608 34.8405ZM69.6718 31.473L70.2575 31.6194V31.0338L69.6718 31.473ZM39.503 50.0676L40.0888 49.9212L39.6494 49.4819L39.503 50.0676ZM41.4068 55.0457L40.5282 54.0208L39.9423 55.3385L41.4068 55.0457ZM44.1894 52.703L42.432 52.1174L42.5784 54.0208L44.1894 52.703ZM36.2811 49.7748L35.5488 49.6283L35.8417 50.3604L36.2811 49.7748ZM67.3285 31.7659L66.8892 31.3266L66.5963 31.9123L67.3285 31.7659ZM76.1156 35.719V34.1085L74.5046 34.987L76.1156 35.719ZM73.9188 33.9621L75.2369 34.4013V33.0836L73.9188 33.9621Z" fill="#AF2500"/>
<path d="M74.0653 32.4979L73.1866 32.9372L74.0653 33.6692V32.4979ZM75.5298 34.5477L76.7014 34.987L76.5549 33.5228L75.5298 34.5477ZM76.5549 29.1304L76.9943 29.5697L77.1408 28.8376L76.5549 29.1304ZM75.6763 32.4979L76.4085 32.2051L75.8227 31.6194L75.6763 32.4979ZM81.0949 27.9591L81.3878 28.3983L81.8271 27.8127L81.0949 27.9591ZM77.7265 32.6443L77.5801 31.7659L76.8478 32.2051L77.7265 32.6443ZM80.6556 30.741L81.0949 29.7161H79.9233L80.6556 30.741ZM77.1408 34.6941L78.4588 33.3764L76.4085 32.6443L77.1408 34.6941ZM79.9233 31.7659L78.1659 31.473L78.6053 33.3764L79.9233 31.7659ZM79.484 30.8874L80.0698 31.3266L80.2162 30.4481L79.484 30.8874ZM76.5549 31.3266L77.5801 31.473L77.1408 30.3017L76.5549 31.3266ZM78.6053 29.8625L79.484 30.0089L79.0446 28.984L78.6053 29.8625ZM81.5343 28.984L80.9485 28.5448L80.802 29.2768L81.5343 28.984ZM72.4543 34.8405L72.3079 33.9621L71.4292 34.6941L72.4543 34.8405ZM70.9898 36.0119L71.5756 35.2798L70.5505 34.987L70.9898 36.0119ZM72.4543 36.5975L72.1614 35.719L71.4292 36.3047L72.4543 36.5975ZM73.7724 35.719L73.6259 34.8405L72.7472 35.5726L73.7724 35.719ZM74.2118 31.473L74.7975 31.7659V31.0338L74.2118 31.473ZM71.5756 32.3515L72.015 32.4979V31.7659L71.5756 32.3515ZM35.4024 49.6284L34.6702 49.4819L34.8166 50.214L35.4024 49.6284ZM36.4276 51.5317V50.9461L35.8418 51.2389L36.4276 51.5317ZM39.3566 50.9461L39.9424 51.2389L40.0888 50.5068L39.3566 50.9461ZM37.1598 48.1642L36.7205 47.5786L36.2811 48.3106L37.1598 48.1642ZM41.114 50.214L41.4069 49.4819L40.5282 49.3355L41.114 50.214ZM40.2353 50.214L39.6495 49.9212L39.7959 50.6533L40.2353 50.214ZM41.8462 46.4072L42.1391 45.5288L41.114 45.6752L41.8462 46.4072ZM39.6495 46.9929L38.9172 46.8465L39.0637 47.725L39.6495 46.9929ZM37.5992 49.9212L36.8669 49.7748L37.1598 50.5068L37.5992 49.9212ZM38.3314 45.968L37.5992 45.8216L37.7456 46.5537L38.3314 45.968ZM39.3566 49.1891L39.2101 48.7499L38.6243 49.0427L39.3566 49.1891ZM44.4823 33.8157L45.8004 34.4013L45.6539 33.3764L44.4823 33.8157ZM71.1363 33.5228L71.5756 33.6692V33.0836L71.1363 33.5228ZM37.3063 48.1642L37.7456 48.0178L37.3063 47.4321V48.1642Z" fill="#AF2500"/>
<path d="M73.333 61.9272C70.6969 61.9272 68.5002 58.2669 68.5002 54.1673C68.5002 50.0677 70.6969 46.4074 73.333 46.4074C73.7724 46.4074 74.3582 46.5538 74.7975 46.7002V45.0896C74.3582 44.9432 73.9188 44.7968 73.4795 44.7968C69.9647 44.7968 67.1821 49.0428 67.1821 54.1673C67.1821 59.2918 69.9647 63.5378 73.4795 63.5378H74.0653L74.2117 62.0736C73.7724 61.7808 73.4795 61.9272 73.333 61.9272Z" fill="white"/>
<path d="M79.6304 54.0208C79.6304 49.6284 77.5801 45.8216 74.6511 44.9431V46.5537C76.5549 47.5786 78.0195 50.5069 78.0195 54.0208C78.0195 57.8276 76.262 61.0487 73.9188 61.6343L73.7724 63.0985C77.1408 62.8056 79.6304 58.8525 79.6304 54.0208Z" fill="#CCCCCC"/>
</g>
<defs>
<linearGradient id="paint0_linear_52_466" x1="37.9507" y1="89.7751" x2="48.0087" y2="76.815" gradientUnits="userSpaceOnUse">
<stop stop-color="#BC5A32" stop-opacity="0"/>
<stop offset="0.99" stop-color="#BC5A32"/>
</linearGradient>
<linearGradient id="paint1_linear_52_466" x1="55.3929" y1="44.9724" x2="50.0351" y2="32.5702" gradientUnits="userSpaceOnUse">
<stop stop-color="#BC5A32" stop-opacity="0"/>
<stop offset="0.99" stop-color="#BC5A32"/>
</linearGradient>
<linearGradient id="paint2_linear_52_466" x1="30.8478" y1="64.7091" x2="31.3455" y2="56.9052" gradientUnits="userSpaceOnUse">
<stop stop-color="#CC7A5E" stop-opacity="0"/>
<stop offset="0.92" stop-color="#AA5F4B"/>
</linearGradient>
<clipPath id="clip0_52_466">
<rect width="223" height="95" rx="20" fill="white"/>
</clipPath>
</defs>
</svg>
